<svg width="1116" height="194" viewBox="0 0 1116 194" fill="none" xmlns="http://www.w3.org/2000/svg">
<path d="M704.023 0.411361C705.383 0.271361 706.753 0.171302 708.113 0.101302C775.133 -3.0987 802.813 70.1814 788.583 125.311C784.093 142.741 780.823 153.901 768.253 167.631C755.663 181.561 737.983 189.801 719.223 190.491C704.713 192.871 684.243 189.791 671.873 181.191C620.083 145.191 614.473 57.2913 665.063 17.5913C678.523 7.03129 687.503 3.94136 704.023 0.411361ZM717.773 170.351C764.573 147.011 757.443 21.5814 710.803 23.6514C668.633 34.7713 667.153 146.121 703.203 167.461C708.173 170.411 712.133 170.351 717.773 170.351Z" fill="#545454"/>
<path d="M669.003 33.9512C669.583 38.3012 664.143 46.2011 662.233 51.0911C652.403 76.3111 652.013 108.051 659.833 133.881C662.943 144.181 665.973 147.731 669.143 156.201L667.873 156.561C643.843 121.921 641.373 67.3812 669.003 33.9512Z" fill="#D5C8A9"/>
<path d="M754.483 36.0508C761.523 43.3308 767.653 57.4808 769.763 67.2908C776.753 99.8508 772.953 126.681 755.873 154.781L754.073 156.531L753.853 154.851L754.723 153.151C768.753 124.711 771.853 92.1007 763.433 61.5107C760.593 50.9607 757.683 45.6508 754.483 36.0508Z" fill="#D5C8A9"/>
<path d="M813.373 4.50201C823.553 4.31201 833.823 4.33206 844.003 4.30206C879.273 4.17206 925.843 0.732084 949.503 32.9521C979.563 73.9121 973.933 140.502 933.053 172.652C925.323 178.462 907.033 186.462 897.853 186.762C882.923 187.232 821.883 191.232 810.463 186.142C812.983 178.632 824.633 169.832 824.673 160.922C824.773 141.142 824.243 121.352 824.303 101.562L824.603 53.1721C824.663 44.7521 825.023 36.852 824.273 28.412C823.643 21.252 812.803 9.67207 812.033 6.68207L813.373 4.50201ZM865.463 166.692C884.383 166.822 896.183 168.032 909.713 151.882C938.313 109.302 933.093 21.192 866.083 23.852C864.353 68.462 865.523 121.572 865.463 166.692Z" fill="#545454"/>
<path d="M925.263 35.8008C938.883 38.1008 947.563 71.0708 948.873 82.9308C951.953 110.671 945.533 133.631 928.643 155.601L926.903 156.761C926.993 153.921 934.463 143.641 936.253 138.991C949.643 104.031 948.603 65.9908 925.263 35.8008Z" fill="#D5C8A9"/>
<path d="M843.743 29.6719L845.353 31.2919C847.123 52.8719 846.713 77.4919 846.803 99.4619C846.853 114.432 847.303 146.612 844.473 161.062L844.013 161.082C842.813 154.132 842.893 136.352 842.693 128.362C841.873 95.4718 843.043 62.5519 843.743 29.6719Z" fill="#D5C8A9"/>
<path d="M158.632 4.47154C167.141 3.47154 217.308 2.94164 224.224 5.70164C225.323 8.86164 212.131 25.1616 212.163 35.7016C212.01 50.0716 212.212 62.0516 212.827 76.7016C214.076 106.482 201.951 169.152 249.32 167.122C258.929 166.712 273.861 157.442 276.391 147.572C284.347 116.522 278.565 81.4516 279.845 49.5416C280.274 38.2616 279.683 22.3116 271.875 14.5516C268.987 11.6916 267.413 11.1616 267.389 6.82163C272.025 2.32163 305.279 4.09156 313.603 4.12156L315.227 4.82163L315.788 7.10154C312.344 17.6915 303.242 22.0916 302.017 36.5716C302.159 57.6416 298.687 88.6716 301.405 108.812C310.992 179.842 250.212 216.172 192.413 177.522C174.856 165.792 172.923 137.432 172.336 115.842C171.988 96.7315 171.866 77.6216 171.97 58.5216C171.947 47.5316 172.178 36.5016 171.133 25.5316C170.185 15.5816 159.242 12.3615 158.632 4.47154Z" fill="#545454"/>
<path d="M192.646 32.9912C197.492 71.7412 190.597 111.731 197.285 150.581L195.611 152.231C187.002 127.921 187.916 59.0512 192.646 32.9912Z" fill="#D5C8A9"/>
<path d="M197.285 150.582C199.249 153.932 201.042 155.692 201.014 159.122C198.378 158.112 196.816 154.782 195.611 152.232L197.285 150.582Z" fill="#867D60"/>
<path d="M392.259 0.581586C406.934 -0.808414 418.574 3.60149 431.768 9.23149C436.347 6.63149 439.805 5.65159 444.743 3.96159C446.802 12.3516 454.699 51.5816 444.946 55.1816C436.178 52.7716 424.846 17.7216 401.73 20.3116C378.146 22.9616 374.028 27.8816 375.325 50.8216C388.165 70.7116 423.594 77.8815 440.439 95.6615C450.223 105.982 458.661 118.962 458.005 133.692C456.052 177.562 425.802 192.062 386.621 192.572C375.307 191.302 364.297 185.992 352.88 182.962C347.583 185.992 342.647 188.512 337.21 191.262C336.556 184.102 336.448 136.502 338.504 131.932C344.545 133.212 357.02 153.742 364.196 159.932C377.726 171.592 400.886 176.842 413.364 160.042C416.869 155.312 418.151 149.292 416.879 143.532C411.185 118.002 364.78 109.422 347.533 87.2415C327.086 60.9415 332.65 28.6315 360.382 10.4815C370.292 3.99149 381.13 2.20159 392.259 0.581586Z" fill="#545454"/>
<path d="M354.819 40.8711C356.392 47.2911 356.504 58.6511 359.901 63.9011C380.198 95.2711 462.607 102.321 434.47 155.231L433.222 155.781C433.735 148.371 436.655 140.411 435.056 132.791C425.912 89.2211 340.572 95.4611 354.819 40.8711Z" fill="#D5C8A9"/>
<path d="M1029.7 4.64118C1040.58 4.57118 1097.72 3.26117 1104.19 6.01117C1110.53 15.1812 1109.68 40.1612 1109.36 51.3912C1086.55 19.9912 1077.8 24.8212 1041.13 25.2112C1040.83 44.0112 1041.01 63.3312 1040.96 82.1712C1051.47 82.0512 1061.59 82.3512 1072.08 82.6412C1077.54 77.4412 1077.77 71.6712 1083.88 69.6412L1085.95 70.9012C1090.45 79.4212 1089.45 109.371 1087.41 119.111C1066.38 102.631 1067.86 102.291 1040.78 103.271C1040.25 111.371 1039.71 160.131 1041.49 165.941C1044.48 168.111 1043.62 167.411 1048.26 167.251C1071.85 166.991 1088.9 170.071 1105.42 150.631C1107.28 148.451 1112.38 141.541 1113.56 141.001L1115.21 142.021C1117.16 148.501 1112.19 178.941 1111.17 188.161C1090.65 189.101 1065.24 187.981 1044.24 188.461C1031.47 188.751 1000.24 189.211 989.173 187.731L988.563 185.711C990.563 179.091 1000.48 172.421 1000.22 165.811C998.493 122.321 1001.12 78.6512 999.743 35.1512C999.573 29.6712 998.733 25.2012 997.173 19.9612L996.733 18.5012C992.633 14.4312 989.993 12.7912 985.993 8.06122L986.633 6.48114C997.343 3.85114 1018.04 4.65118 1029.7 4.64118Z" fill="#545454"/>
<path d="M1018.54 38.8707C1019.86 36.7007 1018.94 37.4608 1021.28 36.5508C1022.76 67.9608 1022.98 99.4108 1021.95 130.831C1021.72 141.211 1021.73 160.191 1019.81 169.541C1014.87 130.491 1018.86 79.1607 1018.54 38.8707Z" fill="#D5C8A9"/>
<path d="M1019 21.041C1020.18 26.881 1020.66 30.681 1021.28 36.551C1018.94 37.461 1019.86 36.701 1018.54 38.871C1018.48 33.251 1018.83 26.731 1019 21.041Z" fill="#B3A78B"/>
<path d="M80.1772 0.571059C94.5792 -0.158941 109.115 4.44105 122.664 8.69105C126.965 6.63105 130.804 3.531 134.846 6.511C136.214 10.691 135.942 20.011 135.774 24.561C135.495 32.071 138.76 52.391 134.195 57.291C128.359 55.831 116.115 24.701 95.6642 22.801C37.1092 17.351 33.4712 114.421 58.5132 148.311C77.1112 173.481 99.9902 173.321 123.225 156.971C129.315 151.441 132.422 144.841 139.601 143.861C141.202 144.561 142.921 144.781 142.863 146.721C142.105 172.251 117.527 187.781 96.8782 191.101C76.1972 194.251 55.1072 189.131 38.1692 176.851C-18.2148 136.001 -11.8418 32.361 55.3712 6.23097C63.7382 2.97097 71.3232 1.92106 80.1772 0.571059Z" fill="#545454"/>
<path d="M39.1112 36.9912C39.4292 41.6112 31.6122 53.5713 29.9412 59.1613C21.3392 87.9413 22.2591 118.401 35.2181 145.721C39.2681 154.261 45.2752 158.201 47.3442 162.631L45.8502 162.921C14.4152 132.071 8.76015 70.3412 39.1112 36.9912Z" fill="url(#paint0_linear_5509_5461)"/>
<path d="M546.653 4.65161L611.413 4.6416C612.343 20.2216 613.513 36.3016 613.583 51.8616C592.543 32.3716 598.003 26.4017 564.933 26.0817C565.463 54.4817 565.723 82.8816 565.713 111.282C565.773 128.122 564.463 158.332 568.313 173.122C572.133 177.272 577.423 181.212 581.873 184.792C567.793 189.882 555.193 189.012 540.263 189.312C534.777 188.702 505.889 190.282 511.142 182.742C520.278 169.622 523.772 168.422 523.603 152.412C523.158 110.342 523.573 68.1216 524.27 26.0416C513.496 25.9316 492.715 25.8416 487.347 36.4716C484.516 42.0816 482.676 45.4817 477.2 48.9517L475.299 48.3716C471.509 40.4116 477.141 15.1516 478.119 4.79163C500.881 5.48163 523.87 4.96161 546.653 4.65161Z" fill="#545454"/>
<path d="M542.903 27.9707L543.893 29.0007C546.213 39.6007 546.033 65.0207 545.993 76.7307C545.883 104.281 545.353 131.821 544.393 159.351L543.333 159.311C538.913 149.061 542.273 44.4407 542.903 27.9707Z" fill="#D5C8A9"/>
<defs>
<linearGradient id="paint0_linear_5509_5461" x1="47.7343" y1="99.7453" x2="19.6772" y2="97.7176" gradientUnits="userSpaceOnUse">
<stop stop-color="#A99E83"/>
<stop offset="1" stop-color="#CDC1A8"/>
</linearGradient>
</defs>
</svg>
