<svg width="673" height="821" viewBox="0 0 673 821" fill="none" xmlns="http://www.w3.org/2000/svg">
<path d="M360.982 27.2693C371.402 17.2863 383.922 9.75528 397.632 5.22728C419.042 -1.90072 439.472 -1.86071 460.932 6.09829C464.912 7.57629 474.112 13.5703 479.102 16.0693C481.482 12.9373 484.912 7.15829 488.582 5.96029C493.932 4.21329 498.442 6.70229 500.482 11.5693C500.232 13.0003 500.042 14.6153 499.782 16.0353C497.482 28.6333 525.062 26.8113 532.932 27.0713C549.132 18.7263 542.582 26.8323 553.102 26.2393C565.062 25.5663 564.852 22.1263 577.482 32.5723C579.912 34.5783 589.962 33.9523 594.292 37.0013C602.692 42.9163 600.702 54.0683 608.282 60.0843C616.982 64.3703 611.772 73.6823 612.962 75.9053C617.372 84.1723 622.182 82.6923 617.302 94.8683C615.742 100.659 623.582 124.307 630.202 126.991C636.742 126.866 634.222 122.839 641.982 123.446C648.222 127.166 648.382 135.483 644.612 141.082C643.122 142.601 641.652 144.026 639.942 145.295C644.632 153.672 653.472 161.481 658.542 170.566C674.782 199.665 672.332 235.264 657.122 264.139C665.522 268.521 668.632 271.537 671.582 280.685C673.882 287.818 672.252 292.586 665.522 295.842C641.802 287.884 643.372 293.878 624.442 307.968C616.002 315.063 607.872 319.301 597.282 322.549L593.932 324.162C594.542 326.815 593.552 323.997 595.242 326.971C597.882 331.598 599.802 346.531 599.082 351.129C597.252 357.486 590.612 366.285 583.502 365.642C566.382 355.965 590.542 343.554 537.012 339.944C524.362 340.185 511.882 335.969 500.172 331.642L498.932 332.525L499.632 336.635C498.552 356.969 482.172 361.616 467.612 348.843C470.782 346.299 474.952 343.779 474.792 339.241C474.292 325.603 454.602 317.094 442.892 319.482C443.912 324.618 448.142 326.611 446.122 334.049C442.602 346.987 426.732 355.141 415.222 346.066L413.402 345.334C410.492 348.118 409.762 358.343 404.402 360.796C394.202 365.478 382.812 366.659 371.952 368.396C367.052 369.178 372.082 388.124 368.052 391.195C361.902 395.875 359.982 402.782 356.072 408.993C352.222 411.199 345.342 411.33 340.522 412.272C331.342 419.737 321.852 432.258 314.252 441.612C289.434 472.144 263.477 501.811 239.038 532.625C232.809 540.475 237.819 559.585 229.794 567.455C222.712 574.645 199.99 573.395 198.039 583.585C205.026 591.325 214.025 596.605 218.717 604.635C215.842 609.525 211.41 616.695 206.941 620.275C204.429 623.905 204.284 622.915 204.274 626.565C206.081 629.745 209.417 631.605 212.484 633.755C217.047 628.785 226.389 617.525 230.605 613.685C237.862 618.825 248.883 627.765 255.524 634.025L248.599 642.755L239.757 652.995C242.643 655.575 245.479 658.275 248.634 660.515C253.608 654.535 259.33 647.405 264.611 641.755C274.238 647.915 295.455 665.905 302.582 674.475C294.811 684.705 274.019 712.345 264.419 718.385C257.112 718.765 236.759 694.705 229.946 695.205C230.873 701.655 237.468 706.065 242.388 710.055L235.277 719.935C240.858 725.395 246.346 730.955 251.738 736.605C245.616 743.755 239.239 751.485 232.997 758.465C229.379 755.805 216.629 745.645 213.476 745.265C210.442 749.035 207.787 751.205 204.204 754.395C200.42 750.775 196.295 747.425 192.282 744.045L189.616 747.155L189.821 748.815C199.096 755.855 207.253 761.925 215.905 769.745C219.301 772.315 218.219 770.715 219.549 774.485C218.817 776.035 218.948 776.425 217.799 777.255C214.225 783.845 186.286 817.135 180.053 820.805C173.338 819.305 146.381 795.745 141.242 789.815C145.605 782.555 150.747 776.655 156.163 770.175C152.979 767.485 151.301 765.815 148.457 762.755C142.635 769.695 137.336 776.105 130.997 782.615C127.073 779.995 120.137 773.785 116.241 770.455C112.185 767.715 109.802 764.845 106.45 761.315C109.16 756.335 111.595 753.435 115.047 749.045L122.802 739.505C119.937 736.715 116.428 733.805 113.379 731.135C107.976 738.365 100.758 746.405 94.5466 752.935C88.7706 749.335 76.3857 739.025 70.4957 734.355C63.1807 744.465 54.8736 755.625 41.9736 757.955C32.3606 759.685 22.4597 757.385 14.5917 751.595C-16.9723 728.285 9.93367 700.365 27.3427 680.225C32.8547 673.855 38.2737 666.925 43.6517 660.395L108.854 581.465C121.564 566.125 135.988 549.445 147.942 533.655C149.634 524.715 149.766 512.422 153.576 504.312C157.571 495.806 171.564 495.412 179.405 492.543C188.012 489.394 268.067 390.367 279.106 375.058C281.763 371.373 283.872 367.502 285.818 363.408C283.761 356.819 283.684 356.011 284.099 349.109C290.225 343.726 297.204 336.656 303.332 331.291C307.202 329.95 315.452 329.916 318.592 327.591C324.852 322.951 320.592 315.769 320.982 307.817C321.732 292.419 322.202 288.035 334.922 280.889C320.342 257.155 331.352 245.323 356.812 245.495C358.392 240.886 352.422 231.464 350.132 227.047C332.622 210.328 329.242 224.327 319.572 223.71C316.742 221.675 314.922 218.456 313.832 215.209C309.452 202.058 322.432 196.992 331.852 193.889L331.902 192.892C327.842 185.171 323.802 177.865 319.962 169.28C314.022 155.984 310.112 137.611 299.922 126.341C297.069 123.18 284.54 121.963 280.025 121.474C281.177 106.513 287.615 99.5593 303.192 100.834C308.582 96.8543 310.232 97.7153 315.632 101.372C318.052 99.5323 317.762 91.4173 318.922 86.7853C322.082 74.1463 328.262 63.2563 333.362 51.3693C339.242 37.6483 335.012 36.2933 329.612 23.5693C332.732 9.03429 353.902 17.2493 360.982 27.2693Z" fill="#443322"/>
<path d="M360.982 27.2693C371.402 17.2863 383.922 9.75528 397.632 5.22728C419.042 -1.90072 439.472 -1.86071 460.932 6.09829C464.912 7.57629 474.112 13.5703 479.102 16.0693C481.482 12.9373 484.912 7.15829 488.582 5.96029C493.932 4.21329 498.442 6.70229 500.482 11.5693C500.232 13.0003 500.042 14.6153 499.782 16.0353C497.482 28.6333 525.062 26.8113 532.932 27.0713C549.132 18.7263 542.582 26.8323 553.102 26.2393C565.062 25.5663 564.852 22.1263 577.482 32.5723C579.912 34.5783 589.962 33.9523 594.292 37.0013C602.692 42.9163 600.702 54.0683 608.282 60.0843C616.982 64.3703 611.772 73.6823 612.962 75.9053C617.372 84.1723 622.182 82.6923 617.302 94.8683C615.742 100.659 623.582 124.307 630.202 126.991C636.742 126.866 634.222 122.839 641.982 123.446C648.222 127.166 648.382 135.483 644.612 141.082C643.122 142.601 641.652 144.026 639.942 145.295C644.632 153.672 653.472 161.481 658.542 170.566C674.782 199.665 672.332 235.264 657.122 264.139C665.522 268.521 668.632 271.537 671.582 280.685C673.882 287.818 672.252 292.586 665.522 295.842C641.802 287.884 643.372 293.878 624.442 307.968C616.002 315.063 607.872 319.301 597.282 322.549L593.932 324.162C594.542 326.815 593.552 323.997 595.242 326.971C597.882 331.598 599.802 346.531 599.082 351.129C596.832 350.751 596.932 350.73 594.912 349.623C594.522 342.381 591.332 342.986 586.852 337.644C590.112 336.671 590.772 336.923 592.302 334.064C591.072 330.21 589.502 329.455 586.782 326.815C579.652 319.9 576.642 322.915 568.062 322.446C567.592 317.238 571.092 318.298 570.872 312.406C564.292 309.742 547.562 316.212 541.102 317.477C539.152 317.861 535.082 317.775 531.222 318.433C526.352 320.126 514.392 316.785 509.532 314.839C492.702 308.113 478.932 295.639 471.912 278.765C469.392 272.689 467.402 267.464 469.952 261.141L471.452 261.044L472.062 262.657L472.072 260.418C467.722 256.825 466.652 255.636 463.082 251.238L464.922 248.298C475.452 235.93 485.302 231.297 499.252 241.503C499.682 226.717 482.632 234.034 474.222 229.429L467.372 230.23C463.252 233.199 455.492 237.377 452.712 239.854C450.452 241.324 450.152 241.349 447.682 242.463L447.452 241.577L451.582 235.999L449.342 233.803C448.722 230.183 448.612 232.069 450.922 228.088L450.952 227.581C445.852 219.266 469.002 211.916 470.942 205.891L467.562 202.515C462.042 200.73 465.602 204.155 459.202 200.375C462.282 184.898 464.062 166.652 474.052 154.7C477.822 153.52 481.402 152.926 483.842 149.946C486.862 136.191 460.842 131.955 447.992 146.362C440.432 138.464 424.902 129.924 414.092 134.326C412.952 136.012 411.842 137.152 412.822 139.652C415.922 147.546 418.112 152.594 419.802 160.89C427.532 168.671 437.962 177.992 437.792 189.89C437.752 192.831 437.402 198.374 435.882 200.9L435.192 202.8C433.112 208.683 433.792 210.558 430.452 216.073L429.582 216.477C427.952 214.165 428.392 215.158 428.102 212.225C424.192 210.306 422.232 209.092 421.572 204.386C411.952 213.187 404.232 216.119 390.622 215.808C384.632 215.671 376.022 214.93 371.462 211.091L370.512 208.491C373.542 208.374 379.102 211.779 382.672 212.867C395.242 216.697 414.472 214.1 420.462 200.565L419.942 199.431C415.562 201.053 412.912 204.403 409.192 207.084C398.512 214.772 382.872 211.488 371.932 205.54C363.642 202.539 353.602 193.377 347.512 187.13C342.012 180.877 338.392 174.507 334.712 167.125C325.642 153.198 324.522 132.112 312.132 119.683C310.092 117.641 309.412 116.582 307.902 114.136L308.082 112.896C308.582 109.104 308.302 108.498 307.522 104.875L304.082 103.669L303.192 100.834C308.582 96.8543 310.232 97.7153 315.632 101.372C318.052 99.5323 317.762 91.4173 318.922 86.7853C322.082 74.1463 328.262 63.2563 333.362 51.3693C339.242 37.6483 335.012 36.2933 329.612 23.5693C332.732 9.03429 353.902 17.2493 360.982 27.2693Z" fill="#EBE1CA"/>
<path d="M360.982 27.2693C371.402 17.2863 383.922 9.75528 397.632 5.22728C419.042 -1.90072 439.472 -1.86071 460.932 6.09829C464.912 7.57629 474.112 13.5703 479.102 16.0693C481.482 12.9373 484.912 7.15829 488.582 5.96029C493.932 4.21329 498.442 6.70229 500.482 11.5693C500.232 13.0003 500.042 14.6153 499.782 16.0353C497.482 28.6333 525.062 26.8113 532.932 27.0713C549.132 18.7263 542.582 26.8323 553.102 26.2393C565.062 25.5663 564.852 22.1263 577.482 32.5723C579.912 34.5783 589.962 33.9523 594.292 37.0013C602.692 42.9163 600.702 54.0683 608.282 60.0843C616.982 64.3703 611.772 73.6823 612.962 75.9053C617.372 84.1723 622.182 82.6923 617.302 94.8683C615.742 100.659 623.582 124.307 630.202 126.991C636.742 126.866 634.222 122.839 641.982 123.446C648.222 127.166 648.382 135.483 644.612 141.082L642.592 139.475C639.532 146.408 634.902 140.628 638.712 150.309C639.112 151.304 639.512 152.296 639.922 153.283C635.672 154.35 627.722 145.486 623.812 142.981C601.362 128.574 574.222 127.028 556.682 149.95C548.112 161.146 555.772 170.425 552.862 173.246C551.902 172.082 552.602 172.685 550.472 171.55C548.562 173.068 549.332 172.868 548.502 176.33C546.722 171.84 546.292 166.397 545.572 161.529C540.942 158.314 508.322 159.202 500.582 158.417C498.112 158.166 499.252 158.542 497.172 155.953C494.242 148.866 492.592 138.208 489.862 131.186C485.522 120.058 488.062 117.669 487.552 108.154C478.682 113.1 466.082 112.799 457.682 106.864C451.882 102.762 447.962 96.5103 446.792 89.5013C444.162 73.3123 454.222 63.5883 469.522 61.5703C453.992 42.9803 438.312 37.4413 414.872 41.2213C411.762 41.8633 410.592 41.7863 408.422 44.0943C408.662 50.2463 414.412 49.0693 418.482 51.5873L419.032 53.5653L420.092 53.9863L421.152 55.7563L420.142 56.1273C419.832 55.9093 419.522 55.6913 419.212 55.4733C417.152 54.2953 414.652 54.1683 412.482 55.1303C412.162 55.3043 411.852 55.4793 411.532 55.6543C408.032 55.2903 398.632 55.4603 396.632 54.2473C398.942 52.0183 400.322 51.0343 401.602 48.0623C397.742 39.2813 378.602 49.5613 373.142 53.2203L372.402 50.7833C367.282 53.1993 363.392 61.4193 358.432 61.1163L357.822 59.0263C359.932 49.9403 374.312 50.4163 375.292 40.4483C372.682 42.8233 370.762 44.5563 367.962 46.6803L366.782 46.5263L366.302 43.8323C366.312 42.8753 366.092 41.7533 365.952 40.7753C362.782 39.8343 363.222 40.5073 359.192 42.4403L355.842 43.0653C342.212 47.5793 331.452 89.7073 329.012 103.675L328.322 102.977C326.202 104.015 327.332 103.521 324.902 104.427C323.262 101.927 323.782 96.3073 323.782 93.0223C322.442 93.4673 320.932 99.9093 318.992 103.352L316.262 102.917L315.632 101.372C318.052 99.5323 317.762 91.4173 318.922 86.7853C322.082 74.1463 328.262 63.2563 333.362 51.3693C339.242 37.6483 335.012 36.2933 329.612 23.5693C332.732 9.03429 353.902 17.2493 360.982 27.2693Z" fill="#3D2A1C"/>
<path d="M364.512 33.6424C382.872 17.7944 394.482 10.1734 419.692 7.59943C445.792 4.93443 464.582 12.9494 484.412 29.3814C487.172 30.5874 486.722 30.8094 489.472 30.8954L487.852 24.7874C493.412 30.4754 495.622 32.0944 502.962 35.1954C501.782 37.6994 501.852 37.5534 499.852 39.4854L499.752 41.3474C502.432 40.1714 509.592 41.8464 513.192 42.3544L516.082 43.4124C515.032 45.5634 515.652 44.6974 514.382 46.1214C518.112 44.6294 518.502 44.3674 522.432 44.0734C524.612 45.7854 525.272 46.4154 527.182 48.4194L531.312 49.6684L533.272 47.9664C535.162 49.4754 536.102 49.9004 538.362 50.8004C536.992 62.9424 515.322 55.9764 527.312 79.6594L525.582 79.5654C522.652 76.1884 522.112 75.7544 521.102 71.2744L521.662 80.6765L520.602 86.0114C516.292 86.4314 515.692 82.4364 510.472 82.8454C503.002 87.3324 501.862 89.6564 503.022 97.3004C501.222 101.767 496.672 100.857 492.792 109.376L490.632 114.109L489.442 113.827L489.162 108.059L488.172 107.584L487.552 108.154C478.682 113.1 466.082 112.799 457.682 106.864C451.882 102.762 447.962 96.5104 446.792 89.5014C444.162 73.3124 454.222 63.5884 469.522 61.5704C453.992 42.9804 438.312 37.4414 414.872 41.2214C411.762 41.8634 410.592 41.7864 408.422 44.0944C408.662 50.2464 414.412 49.0694 418.482 51.5874L419.032 53.5654L420.092 53.9865L421.152 55.7564L420.142 56.1274C419.832 55.9094 419.522 55.6915 419.212 55.4735C417.152 54.2955 414.652 54.1684 412.482 55.1304C412.162 55.3044 411.852 55.4794 411.532 55.6544C408.032 55.2904 398.632 55.4604 396.632 54.2474C398.942 52.0184 400.322 51.0344 401.602 48.0624C397.742 39.2814 378.602 49.5614 373.142 53.2204L372.402 50.7835C367.282 53.1995 363.392 61.4194 358.432 61.1164L357.822 59.0264C359.932 49.9404 374.312 50.4164 375.292 40.4484C372.682 42.8234 370.762 44.5564 367.962 46.6804L366.782 46.5264L366.302 43.8324C368.062 41.8504 369.142 41.1934 369.362 38.6394L368.242 37.4594L369.162 35.5024L368.972 34.2274C367.382 34.0014 365.152 36.1984 363.362 37.4744L362.842 36.6564L364.512 33.6424Z" fill="#443322"/>
<path d="M364.512 33.6424C382.872 17.7944 394.482 10.1734 419.692 7.59943C445.792 4.93443 464.582 12.9494 484.412 29.3814C493.802 39.9614 498.492 47.9665 501.192 62.0465C498.822 63.5565 498.842 63.6864 496.162 64.3864L494.352 62.8804L495.982 61.9974C497.622 52.9574 483.972 35.7484 476.722 30.4514C466.252 22.8114 452.352 12.8934 439.622 19.1624C428.542 18.5564 416.072 18.7774 405.692 23.3584C399.962 25.6844 393.002 28.1954 387.932 31.5414C385.232 33.0964 376.552 38.1584 375.292 40.4484C372.682 42.8234 370.762 44.5564 367.962 46.6804L366.782 46.5264L366.302 43.8324C368.062 41.8504 369.142 41.1934 369.362 38.6394L368.242 37.4594L369.162 35.5024L368.972 34.2274C367.382 34.0014 365.152 36.1984 363.362 37.4744L362.842 36.6564L364.512 33.6424Z" fill="#9D5B32"/>
<path d="M369.162 35.502C376.272 33.78 399.812 11.707 406.892 18.072L404.272 20.153L405.692 23.358C399.962 25.684 393.002 28.195 387.932 31.541C385.232 33.096 376.552 38.158 375.292 40.448C372.682 42.823 370.762 44.556 367.962 46.68L366.782 46.526L366.302 43.832C368.062 41.85 369.142 41.193 369.362 38.639L368.242 37.459L369.162 35.502Z" fill="#8A522E"/>
<path d="M439.622 19.1626C452.352 12.8936 466.252 22.8116 476.722 30.4516C483.972 35.7486 497.622 52.9576 495.982 61.9976L494.352 62.8806L496.161 64.3866C498.841 63.6866 498.822 63.5566 501.192 62.0466C504.722 116.018 453.352 111.922 453.112 83.7736C453.102 83.0706 453.121 82.3686 453.141 81.6656L456.672 82.0896C458.532 80.1816 460.422 77.4606 462.492 77.1106C462.872 81.1296 462.742 81.6846 462.122 85.7356C461.752 86.7126 461.822 87.7436 461.752 88.8786C470.302 103.784 511.502 90.6136 480.682 42.7796C468.702 28.0786 457.212 24.3666 439.622 19.1626Z" fill="#8A522E"/>
<path d="M405.692 23.3586C416.072 18.7776 428.542 18.5566 439.622 19.1626C457.212 24.3666 468.702 28.0786 480.682 42.7796C479.762 45.5606 479.092 47.2596 478.732 50.2096L474.572 46.3035C470.382 41.2155 471.402 40.0696 468.902 34.3226C458.722 33.0816 448.522 31.1546 438.472 29.1716C433.702 28.2326 419.472 28.3176 416.292 27.3416C406.972 24.4816 394.882 33.3706 389.932 33.8436L387.932 31.5416C393.002 28.1956 399.962 25.6846 405.692 23.3586Z" fill="#663E25"/>
<path d="M514.382 46.1212C518.112 44.6292 518.502 44.3672 522.432 44.0732C524.612 45.7852 525.272 46.4153 527.182 48.4193L531.312 49.6682L533.272 47.9662C535.162 49.4752 536.102 49.9002 538.362 50.8002C536.992 62.9422 515.322 55.9762 527.312 79.6592L525.582 79.5652C522.652 76.1882 522.112 75.7542 521.102 71.2742L520.142 76.4852C515.732 74.5302 514.532 76.1113 510.502 78.4713L509.292 79.1923L508.022 78.4763C507.872 72.0973 508.292 72.2863 512.922 67.2993L513.932 66.2272C510.662 66.8262 510.802 67.3243 508.022 66.3853C502.712 58.7663 508.382 51.1582 514.382 46.1212Z" fill="#663E25"/>
<path d="M453.142 81.6653C458.052 69.9003 469.602 60.1343 478.252 72.8683C486.582 85.1213 477.002 98.1813 462.122 85.7353C462.742 81.6843 462.872 81.1293 462.492 77.1103C460.422 77.4603 458.532 80.1813 456.672 82.0893L453.142 81.6653Z" fill="#9D5B32"/>
<path d="M418.602 34.0656C433.392 32.6436 447.422 33.9166 460.142 42.5786C462.202 44.4776 463.592 44.9966 463.822 47.1876C464.412 52.9866 469.562 55.8216 469.522 61.5706C453.992 42.9806 438.312 37.4416 414.872 41.2216C411.192 41.2676 410.892 41.1486 407.442 40.4506L406.912 39.1966C410.312 37.5226 416.202 37.3786 420.202 37.0126C419.662 36.0306 419.132 35.0476 418.602 34.0656Z" fill="#3D2A1C"/>
<path d="M418.602 34.0656C414.782 34.6606 408.872 35.9326 405.302 35.3146C418.372 28.5046 448.302 30.1506 459.442 40.3856L460.142 42.5786C447.422 33.9166 433.392 32.6436 418.602 34.0656Z" fill="#9D5B32"/>
<path d="M499.752 41.3477C502.432 40.1717 509.592 41.8467 513.192 42.3547C510.612 43.4427 507.892 45.4397 505.092 46.9047C501.742 45.6737 502.262 45.0487 499.752 41.3477Z" fill="#9D5B32"/>
<path d="M474.572 46.3037L478.732 50.2097C479.092 51.6247 479.052 50.8307 478.552 52.5877C476.112 50.6347 475.792 49.1697 474.572 46.3037Z" fill="#9D5B32"/>
<path d="M360.982 27.2693C371.402 17.2863 383.922 9.75528 397.632 5.22728C419.042 -1.90072 439.472 -1.86071 460.932 6.09829C464.912 7.57629 474.112 13.5703 479.102 16.0693C481.482 12.9373 484.912 7.15829 488.582 5.96029C493.932 4.21329 498.442 6.70229 500.482 11.5693C500.232 13.0003 500.042 14.6153 499.782 16.0353C497.482 28.6333 525.062 26.8113 532.932 27.0713C549.132 18.7263 542.582 26.8323 553.102 26.2393C565.062 25.5663 564.852 22.1263 577.482 32.5723C579.912 34.5783 589.962 33.9523 594.292 37.0013C602.692 42.9163 600.702 54.0683 608.282 60.0843C616.982 64.3703 611.772 73.6823 612.962 75.9053C617.372 84.1723 622.182 82.6923 617.302 94.8683C613.772 93.4333 610.562 95.2563 606.302 96.6743C602.252 97.8433 601.392 99.8413 597.422 98.6663C595.282 92.2423 596.292 93.5903 590.352 91.5143C588.162 93.8283 588.832 93.7033 588.252 97.5923C587.982 93.0573 589.162 87.5443 588.002 83.6873L585.402 82.7773C585.042 79.1753 590.222 79.1703 589.822 76.1133C589.462 73.3023 586.762 73.2123 588.012 68.8463C596.972 63.1733 600.852 67.7703 606.762 67.4863L606.802 65.7823C600.322 59.4373 589.392 65.1093 582.402 64.8463L582.022 63.6593L584.622 59.3803C582.422 59.1593 582.562 59.2273 580.682 58.0693L581.032 55.5503L576.712 59.3013L575.712 58.6233C575.682 49.0913 584.212 50.0243 584.682 41.0393L583.262 40.3213C581.092 42.3353 581.972 41.8463 579.352 43.0193C578.512 40.6483 577.892 38.6813 577.182 36.2893L575.922 36.5373C572.462 42.4353 577.622 47.9793 572.172 52.5443C566.152 53.5773 558.452 49.6283 553.442 46.5743C554.012 38.4083 550.092 27.2883 540.272 29.0573C536.532 32.1813 532.762 43.4583 533.272 47.9663L531.312 49.6683L527.182 48.4193C525.272 46.4153 524.612 45.7853 522.432 44.0733C518.502 44.3673 518.112 44.6293 514.382 46.1213C515.652 44.6973 515.032 45.5633 516.082 43.4123L513.192 42.3543C509.592 41.8463 502.432 40.1713 499.752 41.3473L499.852 39.4853C501.852 37.5533 501.782 37.6993 502.962 35.1953C495.622 32.0943 493.412 30.4753 487.852 24.7873L489.472 30.8953C486.722 30.8093 487.172 30.5873 484.412 29.3813C464.582 12.9493 445.792 4.93429 419.692 7.59929C394.482 10.1733 382.872 17.7943 364.512 33.6423L362.842 36.6563L363.362 37.4743C365.152 36.1983 367.382 34.0013 368.972 34.2273L369.162 35.5023L368.242 37.4593L369.362 38.6393C369.142 41.1933 368.062 41.8503 366.302 43.8323C366.312 42.8753 366.092 41.7533 365.952 40.7753C362.782 39.8343 363.222 40.5073 359.192 42.4403L355.842 43.0653C342.212 47.5793 331.452 89.7073 329.012 103.675L328.322 102.977C326.202 104.015 327.332 103.521 324.902 104.427C323.262 101.927 323.782 96.3073 323.782 93.0223C322.442 93.4673 320.932 99.9093 318.992 103.352L316.262 102.917L315.632 101.372C318.052 99.5323 317.762 91.4173 318.922 86.7853C322.082 74.1463 328.262 63.2563 333.362 51.3693C339.242 37.6483 335.012 36.2933 329.612 23.5693C332.732 9.03429 353.902 17.2493 360.982 27.2693Z" fill="#51331F"/>
<path d="M590.352 91.5141C592.952 81.2311 590.342 81.3151 601.222 78.2041C607.282 81.1641 609.182 82.1141 614.702 86.1611C611.622 90.8341 610.552 92.9231 606.302 96.6741C602.252 97.8431 601.392 99.8411 597.422 98.6661C595.282 92.2421 596.292 93.5901 590.352 91.5141Z" fill="#9D5B32"/>
<path d="M603.092 82.5117C606.502 84.1197 607.852 84.5047 609.032 87.4307C607.802 90.4917 604.762 91.6167 601.722 93.3967C598.572 93.1507 597.242 92.4937 595.282 90.1667L595.682 87.6638C597.792 84.2058 599.082 84.1417 603.092 82.5117Z" fill="#443322"/>
<path d="M487.852 24.787C486.452 20.398 486.322 20.212 486.922 15.75C488.972 12.868 487.652 13.715 490.852 12.874C494.752 18.181 488.491 28.568 506.261 31.391C513.421 32.529 523.082 30.234 528.972 33.978L528.562 35.501C520.982 39.143 510.932 37.259 502.962 35.195C495.622 32.094 493.412 30.475 487.852 24.787Z" fill="#9D5B32"/>
<path d="M355.842 43.0656C355.632 40.4336 355.682 37.3396 355.652 34.6606C356.992 31.7866 360.852 30.0796 363.772 28.3506L365.202 29.5976L364.212 31.7976L364.512 33.6426L362.842 36.6566L363.362 37.4746C365.152 36.1986 367.382 34.0016 368.972 34.2276L369.162 35.5026L368.242 37.4596L369.362 38.6396C369.142 41.1936 368.062 41.8506 366.302 43.8326C366.312 42.8756 366.092 41.7536 365.952 40.7756C362.782 39.8346 363.222 40.5076 359.192 42.4406L355.842 43.0656Z" fill="#443322"/>
<path d="M338.282 23.0073C348.602 23.0393 354.142 24.5473 353.842 35.9543C352.482 36.0653 350.802 36.0573 349.412 36.0903C345.892 33.4553 343.282 28.2533 339.122 23.8793L338.282 23.0073Z" fill="#9D5B32"/>
<path d="M533.272 47.9667C532.762 43.4587 536.532 32.1817 540.272 29.0577C550.092 27.2887 554.012 38.4087 553.442 46.5747C558.452 49.6287 566.152 53.5777 572.172 52.5447C577.622 47.9797 572.462 42.4357 575.922 36.5377L577.182 36.2897C577.892 38.6817 578.512 40.6487 579.352 43.0197C581.972 41.8467 581.092 42.3357 583.262 40.3217L584.682 41.0397C584.212 50.0247 575.682 49.0917 575.712 58.6237L576.712 59.3017L581.032 55.5507L580.682 58.0697C582.562 59.2277 582.422 59.1597 584.622 59.3807L582.022 63.6597L582.402 64.8467C589.392 65.1097 600.322 59.4377 606.802 65.7827L606.762 67.4867C600.852 67.7707 596.972 63.1737 588.012 68.8467C586.762 73.2127 589.462 73.3027 589.822 76.1137C590.222 79.1707 585.042 79.1757 585.402 82.7777L588.002 83.6877C589.162 87.5447 587.982 93.0577 588.252 97.5927C586.372 98.4317 586.422 98.2817 584.352 98.6827L582.132 96.7777C578.802 92.4977 577.502 91.2427 572.512 88.7317C567.222 86.0707 568.822 84.3077 567.452 79.1577L565.972 79.5937C562.522 84.0287 562.552 87.9757 560.002 93.8057L559.582 94.7607L561.252 98.0057L563.082 99.5897L564.442 97.1787C570.442 98.0007 569.372 97.6367 573.602 101.835C577.142 102.162 577.962 101.657 581.272 100.539C583.592 103.708 583.222 102.035 582.792 105.633C580.842 107.925 579.582 109.409 577.352 111.507C572.222 112.27 571.092 112.109 566.112 110.611L564.972 111.271L566.632 115.475C564.552 113.6 563.552 112.679 561.222 111.035L558.882 111.293C555.752 115.709 557.372 121.299 553.762 125.347C550.232 127.582 548.822 128.985 544.822 129.219C542.902 128.583 542.722 128.783 541.232 127.619C538.382 124.829 533.992 118.374 534.002 114.456C538.742 108.459 543.842 114.876 551.132 110.133C551.402 105.412 546.242 104.104 542.732 101.499C539.642 99.1967 535.682 93.4477 532.422 93.3807C531.322 96.2127 532.822 103.742 532.122 109.195C528.642 114.039 524.252 111.621 519.752 109.017C511.582 97.3937 518.262 92.3447 527.862 84.4867L528.022 82.6917C524.952 80.4377 525.942 81.1337 521.662 80.6767L521.102 71.2747C522.112 75.7547 522.652 76.1887 525.582 79.5657L527.312 79.6597C515.322 55.9767 536.992 62.9427 538.362 50.8007C536.102 49.9007 535.162 49.4757 533.272 47.9667Z" fill="#9D5B32"/>
<path d="M541.232 127.619L539.952 121.947L540.782 120.806L542.652 123.328C545.972 122.916 550.552 122.108 553.562 123.545L553.762 125.347C550.232 127.582 548.822 128.985 544.822 129.219C542.902 128.583 542.722 128.783 541.232 127.619Z" fill="#663E25"/>
<path d="M561.252 98.0057C560.912 98.2887 557.112 103.272 555.372 105.022L554.492 104.839L556.482 103.009L555.122 103.238C555.982 101 558.322 97.0317 559.582 94.7607L561.252 98.0057Z" fill="#663E25"/>
<path d="M535.792 59.4932C541.482 61.4752 545.892 63.0772 548.732 68.8262C554.592 80.6912 556.442 71.5492 565.822 71.9772L566.882 74.0482L567.202 72.2732L567.432 73.7902L567.602 73.7982C562.472 76.6982 558.332 76.5052 552.542 77.8692C546.022 80.6002 543.732 82.3802 539.592 87.9072C538.342 89.5782 539.112 89.1571 537.272 89.4651C536.522 83.9581 539.062 83.5302 543.082 80.6742L542.012 79.3262L542.112 77.7752C538.032 72.3602 534.602 66.5482 535.792 59.4932Z" fill="#462814"/>
<path d="M541.962 31.3291C545.452 33.0321 546.222 34.0811 548.202 37.1501C548.672 40.5081 548.742 40.2751 547.262 43.3141L545.552 43.6451L545.902 45.1741C544.532 47.5821 544.392 48.0581 542.002 48.5161L540.422 46.5081C539.372 40.3741 539.952 37.2381 541.962 31.3291Z" fill="#3D2A1C"/>
<path d="M521.662 80.6768C525.942 81.1338 524.951 80.4377 528.021 82.6917L527.862 84.4868C518.262 92.3448 511.582 97.3937 519.752 109.017L516.891 109.24C514.491 107.156 514.692 107.078 513.342 104.125L511.972 103.977C507.932 107.755 503.332 113.377 501.542 118.674L502.492 120.183C504.682 120.035 503.622 120.381 505.472 118.425C507.712 122.181 502.062 122.846 507.812 130.307C507.392 135.625 506.962 135.881 511.882 139.583C513.872 141.157 515.522 142.329 517.302 144.154L519.782 144.829C518.642 149.962 502.602 154.859 498.372 154.443L497.172 155.954C494.242 148.867 492.592 138.209 489.862 131.187C485.522 120.059 488.062 117.67 487.552 108.155L488.172 107.585L489.162 108.06L489.442 113.828L490.632 114.11L492.792 109.377C496.672 100.858 501.221 101.768 503.021 97.3007C501.861 89.6567 503.002 87.3327 510.472 82.8457C515.692 82.4367 516.292 86.4317 520.602 86.0117L521.662 80.6768Z" fill="#663E25"/>
<path d="M507.812 130.307C507.392 135.625 506.962 135.881 511.882 139.583C513.872 141.157 515.522 142.329 517.302 144.154C514.442 144.849 513.802 144.145 511.232 143.238C506.812 141.676 506.592 148.342 502.102 150.74C498.212 145.094 503.912 134.692 507.812 130.307Z" fill="#9D5B32"/>
<path d="M511.822 121.354C514.062 116.941 512.902 117.514 516.482 115.96C529.682 116.597 540.972 131.395 523.912 134.602C515.912 130.132 515.532 129.772 511.822 121.354Z" fill="#9D5B32"/>
<path d="M507.812 130.306C509.862 127.965 510.842 124.318 511.822 121.354C515.532 129.772 515.912 130.132 523.912 134.602L525.302 137.107L524.752 138.654C521.532 139.52 521.122 139.087 517.922 138.181L514.432 133.948C513.072 134.761 512.172 137.999 511.882 139.582C506.962 135.88 507.392 135.624 507.812 130.306Z" fill="#51331F"/>
<path d="M566.632 115.474L564.972 111.27L566.112 110.61C571.092 112.108 572.222 112.269 577.352 111.506L579.662 111.842C577.692 116.895 571.132 118.675 566.632 115.474Z" fill="#462814"/>
<path d="M607.072 102.464C622.172 103.985 605.712 137.904 640.782 131.657L642.082 134.171C623.592 151.344 604.512 112.916 607.072 102.464Z" fill="#8A522E"/>
<path d="M585.661 128.004C583.191 128.057 582.422 129.131 578.882 128.845C576.812 124.227 583.182 120.718 584.072 116.233C584.432 114.378 584.362 114.653 585.082 112.825L586.592 112.943C589.672 119.039 591.851 122.75 585.661 128.004Z" fill="#462814"/>
<path d="M586.592 112.943C589.672 119.039 591.852 122.75 585.662 128.004C584.102 124.99 586.022 116.713 586.592 112.943Z" fill="#9D5B32"/>
<path d="M550.272 139.188L551.562 139.435C551.522 143.748 549.112 146.689 545.892 149.177C541.972 149.693 541.792 150.074 538.902 152.804L537.892 152.523C539.902 148.28 541.942 144.049 544.032 139.84C543.172 141.575 550.422 139.132 550.272 139.188Z" fill="#663E25"/>
<path d="M590.942 103.601C602.752 109.357 601.092 116.188 596.782 126.383C596.232 126.472 595.692 126.122 595.152 125.952C596.652 116.706 595.592 111.513 590.942 103.601Z" fill="#9D5B32"/>
<path d="M536.122 140.075C535.212 146.857 529.132 149.734 523.952 153L523.662 151.289C525.262 148.081 532.782 142.792 536.122 140.075Z" fill="#8A522E"/>
<path d="M548.502 176.33C549.332 172.868 548.562 173.068 550.472 171.55C552.602 172.685 551.902 172.082 552.862 173.246C555.772 170.425 548.112 161.146 556.682 149.95C574.222 127.028 601.362 128.574 623.812 142.981C627.722 145.486 635.672 154.35 639.922 153.283C639.512 152.296 639.112 151.304 638.712 150.309C634.902 140.628 639.532 146.408 642.592 139.475L644.612 141.082C643.122 142.601 641.652 144.026 639.942 145.295C644.632 153.672 653.472 161.481 658.542 170.566C674.782 199.665 672.332 235.264 657.122 264.139C665.522 268.521 668.632 271.537 671.582 280.685C673.882 287.818 672.252 292.586 665.522 295.842C641.802 287.884 643.372 293.878 624.442 307.968C616.002 315.063 607.872 319.301 597.282 322.549L593.932 324.162C594.542 326.815 593.552 323.997 595.242 326.971C597.882 331.598 599.802 346.531 599.082 351.129C596.832 350.751 596.932 350.73 594.912 349.623C594.522 342.381 591.332 342.986 586.852 337.644C590.112 336.671 590.772 336.923 592.302 334.064C591.072 330.21 589.502 329.455 586.782 326.815C579.652 319.9 576.642 322.915 568.062 322.446C567.592 317.238 571.092 318.298 570.872 312.406C564.292 309.742 547.562 316.212 541.102 317.477C539.152 317.861 535.082 317.775 531.222 318.433C531.042 317.485 530.742 313.793 531.752 313.371C539.682 310.036 548.852 308.668 556.192 304.064C558.582 302.566 558.532 302.349 561.572 301.659C563.252 302.671 563.632 302.62 565.542 303.221C570.432 299.849 572.602 300.954 578.242 295.921L578.192 295.18C580.472 291.678 581.202 291.583 585.052 289.452L586.192 288.836C586.192 288.824 591.842 281.36 592.442 280.526L589.142 279.257C588.842 274.977 591.272 270.22 592.102 264.25L592.262 263.048L592.762 258.142C587.642 255.119 590.112 252.195 584.812 249.899C572.202 235.712 588.912 231.033 588.982 230.765C590.402 224.815 591.052 208.142 596.392 202.299C603.272 194.777 618.842 212.042 622.582 217.052L624.192 216.462C626.162 217.796 625.192 217.379 627.002 217.917C626.822 213.894 624.242 193.594 624.602 191.815C618.322 178.108 610.822 172.406 597.462 166.8C598.672 201.096 558.502 201.375 548.502 176.33Z" fill="#663E25"/>
<path d="M599.302 208.156C599.862 208.214 602.142 208.396 602.592 208.549C605.622 219.98 611.962 224.146 614.152 243.082C615.092 261.638 611.242 275.93 599.072 290.823C593.212 297.984 579.372 304.338 578.172 306.625L577.972 310.137L575.812 312.237L576.702 312.951C577.882 312.688 579.692 312.345 580.792 311.987L582.832 311.944C586.722 311.826 593.452 309.536 595.402 311.186C591.682 313.077 588.422 314.762 584.832 316.882C586.512 318.292 590.342 317.393 592.492 316.994C595.232 318.028 595.522 317.751 597.402 319.613C597.192 320.802 597.002 321.348 597.282 322.549L593.932 324.162C594.542 326.815 593.552 323.997 595.242 326.971C597.882 331.598 599.802 346.531 599.082 351.129C596.832 350.751 596.932 350.73 594.912 349.623C594.522 342.381 591.332 342.986 586.852 337.644C590.112 336.671 590.772 336.923 592.302 334.064C591.072 330.21 589.502 329.455 586.782 326.815C579.652 319.9 576.642 322.915 568.062 322.446C567.592 317.238 571.092 318.298 570.872 312.406C564.292 309.742 547.562 316.212 541.102 317.477C539.152 317.861 535.082 317.775 531.222 318.433C531.042 317.485 530.742 313.793 531.752 313.371C539.682 310.036 548.852 308.668 556.192 304.064C558.582 302.566 558.532 302.349 561.572 301.659C563.252 302.671 563.632 302.62 565.542 303.221C570.432 299.849 572.602 300.954 578.242 295.921L578.192 295.18C580.472 291.678 581.202 291.583 585.052 289.452L586.192 288.836C586.192 288.824 591.842 281.36 592.442 280.526L589.142 279.257C588.842 274.977 591.272 270.22 592.102 264.25L592.262 263.048L592.762 258.142C592.002 251.629 587.072 242.417 588.732 238.352C592.982 238.946 596.112 241.413 599.862 243.717C600.812 235.045 591.042 227.619 599.302 208.156Z" fill="url(#paint0_linear_5508_4927)"/>
<path d="M599.302 208.156C599.862 208.214 602.142 208.396 602.592 208.549C605.622 219.98 611.962 224.146 614.152 243.082L611.312 244.617C611.772 262.165 603.552 278.838 591.682 291.412L590.552 291.636C595.792 283.786 609.762 263.726 605.162 253.141C602.712 259.836 595.232 289.182 586.192 288.836C586.192 288.824 591.842 281.36 592.442 280.526L589.142 279.257C588.842 274.977 591.272 270.22 592.102 264.25L592.262 263.048L592.762 258.142C592.002 251.629 587.072 242.417 588.732 238.352C592.982 238.946 596.112 241.413 599.862 243.717C600.812 235.045 591.042 227.619 599.302 208.156Z" fill="#9D5B32"/>
<path d="M592.262 263.048L594.722 261.546C598.662 265.123 594.352 276.334 592.442 280.526L589.142 279.257C588.842 274.977 591.272 270.22 592.102 264.25L592.262 263.048Z" fill="#663E25"/>
<path d="M599.302 208.156C599.862 208.214 602.142 208.396 602.592 208.549C605.622 219.98 611.962 224.146 614.152 243.082L611.312 244.617C610.202 233.002 607.962 216.722 599.302 208.156Z" fill="#663E25"/>
<path d="M602.592 208.549C624.792 219.073 615.922 232.168 622.092 236.875C623.672 234.954 625.101 233.3 626.781 231.454L628.261 231.615C640.201 248.268 614.112 277.471 618.072 283.658C621.472 283.031 631.542 272.263 637.112 268.738L645.952 273.039L647.362 275.333L642.232 278.382C631.562 274.342 615.232 295.565 604.122 300.276C598.732 304.258 587.212 309.627 580.792 311.987C579.692 312.345 577.882 312.688 576.702 312.951L575.812 312.237L577.972 310.137L578.172 306.625C579.372 304.338 593.212 297.984 599.072 290.823C611.242 275.93 615.091 261.638 614.151 243.082C611.961 224.146 605.622 219.98 602.592 208.549Z" fill="url(#paint1_linear_5508_4927)"/>
<path d="M578.172 306.625C591.362 305.856 603.662 288.949 608.842 288.033L611.011 289.698C610.321 293.747 606.902 296.791 604.122 300.276C598.732 304.258 587.212 309.627 580.792 311.987C579.692 312.345 577.882 312.688 576.702 312.951L575.812 312.237L577.972 310.137L578.172 306.625Z" fill="#9D5B32"/>
<path d="M578.172 306.625C591.362 305.856 603.662 288.949 608.842 288.033C601.762 297.775 589.792 307.636 577.972 310.137L578.172 306.625Z" fill="#462814"/>
<path d="M592.492 316.994C597.662 314.517 608.922 308.808 614.602 309.31C620.872 309.865 618.992 307.242 624.442 307.968C616.002 315.063 607.872 319.301 597.282 322.549C597.002 321.348 597.192 320.802 597.402 319.613C595.522 317.751 595.232 318.028 592.492 316.994Z" fill="#3D2A1C"/>
<path d="M645.952 273.039C653.592 271.126 654.642 270.625 661.692 274.86C666.152 277.537 665.822 279.789 664.122 284.106L663.352 284.112C661.372 280.46 655.922 278.497 651.882 277.136L652.332 276.431L650.702 274.834C649.332 274.962 648.642 274.908 647.362 275.333L645.952 273.039Z" fill="#9D5B32"/>
<path d="M624.602 191.815C628.522 199.683 631.341 215.095 627.531 223.072L625.742 223.595C623.742 221.69 623.432 219.724 622.582 217.052L624.192 216.462C626.162 217.796 625.192 217.379 627.002 217.917C626.822 213.894 624.242 193.594 624.602 191.815Z" fill="#F5F3ED"/>
<path d="M568.642 160.629L567.682 159.402L565.742 162.786C561.942 157.864 566.022 151.75 570.882 149.105C594.402 136.301 626.862 151.583 639.002 173.627C639.832 175.136 640.332 183.777 641.382 187.353C635.112 177.005 616.322 152.258 602.502 154.693C610.472 159.565 637.042 174.547 636.302 185.487L634.982 186.931C633.242 185.893 633.662 186.545 633.012 184.942C629.082 175.159 609.952 155.626 598.882 158.815L609.122 163.738C604.862 165.947 596.402 165.066 591.092 165.995C587.302 153.74 577.492 155.97 568.642 160.629Z" fill="#3D2A1C"/>
<path d="M568.642 160.63C577.492 155.971 587.302 153.741 591.092 165.996C591.122 167.208 591.112 168.42 591.072 169.631C590.852 175.535 587.862 181.41 583.562 185.354C579.772 186.402 581.582 186.476 577.912 185.164L577.352 183.971C582.522 180.908 587.092 177.935 587.492 171.476C586.332 168.549 587.332 169.496 585.042 168.012C584.072 170.908 583.902 172.028 581.912 174.406C570.552 178.295 566.482 170.809 568.642 160.63Z" fill="#9D5B32"/>
<path d="M359.192 42.4402C363.222 40.5072 362.782 39.8342 365.952 40.7752C366.092 41.7532 366.312 42.8751 366.302 43.8321L366.782 46.5262L367.962 46.6802C370.762 44.5562 372.682 42.8232 375.292 40.4482C374.312 50.4162 359.932 49.9402 357.822 59.0262L358.432 61.1161C363.392 61.4191 367.282 53.1992 372.402 50.7832L373.142 53.2201C378.602 49.5611 397.742 39.2812 401.602 48.0622C400.322 51.0342 398.942 52.0182 396.632 54.2472C398.632 55.4602 408.032 55.2902 411.532 55.6542C417.282 57.9112 419.352 58.5831 424.542 62.2461C427.002 64.1121 428.702 64.9301 429.612 67.8291C424.572 76.3671 404.822 76.5601 395.882 77.5221C397.742 80.1431 398.782 81.5792 400.312 84.4792L399.862 86.0722C388.642 88.5532 381.232 79.9032 367.552 89.5202C371.172 89.1952 377.642 87.6342 380.892 86.1592L385.102 87.8601L384.472 87.7071L383.522 88.4751L382.132 88.4682C376.732 88.4782 375.792 87.8392 372.442 92.2132C375.692 95.0872 376.872 95.7071 378.602 99.5221C391.812 97.3781 408.802 104.275 412.102 117.744C409.502 128.777 394.132 125.694 388.882 130.915C389.672 135.998 390.332 135.2 388.642 139.24C380.742 144.954 370.822 140.842 369.372 150.661C368.292 157.941 370.712 168.421 373.112 175.205C377.462 179.765 381.832 184.536 387.182 187.831C393.362 184.111 389.612 181.883 395.622 178.33C401.062 174.717 403.622 170.2 410.572 171.626L413.152 171.621C424.922 177.46 431.012 187.756 424.072 200.252C423.282 201.653 422.442 203.032 421.572 204.386C411.952 213.187 404.232 216.119 390.622 215.808C384.632 215.671 376.022 214.93 371.462 211.091L370.512 208.491C373.542 208.374 379.102 211.779 382.672 212.867C395.242 216.697 414.472 214.1 420.462 200.565L419.942 199.431C415.562 201.053 412.912 204.403 409.192 207.084C398.512 214.772 382.872 211.488 371.932 205.54C363.642 202.539 353.602 193.377 347.512 187.13C342.012 180.877 338.392 174.507 334.712 167.125C325.642 153.198 324.522 132.112 312.132 119.683C310.092 117.641 309.412 116.582 307.902 114.136L308.082 112.896C308.582 109.104 308.302 108.498 307.522 104.875L304.082 103.669L303.192 100.834C308.582 96.8541 310.232 97.7152 315.632 101.372L316.262 102.917L318.992 103.352C320.932 99.9091 322.442 93.4671 323.782 93.0221C323.782 96.3071 323.262 101.927 324.902 104.427C327.332 103.521 326.202 104.015 328.322 102.977L329.012 103.675C331.452 89.7071 342.212 47.5792 355.842 43.0652L359.192 42.4402Z" fill="#9D5B32"/>
<path d="M359.192 42.4402C363.222 40.5072 362.782 39.8342 365.952 40.7752C366.092 41.7532 366.312 42.8751 366.302 43.8321L366.782 46.5262L367.962 46.6802C370.762 44.5562 372.682 42.8232 375.292 40.4482C374.312 50.4162 359.932 49.9402 357.822 59.0262L358.432 61.1161C363.392 61.4191 367.282 53.1992 372.402 50.7832L373.142 53.2201C378.602 49.5611 397.742 39.2812 401.602 48.0622C400.322 51.0342 398.942 52.0182 396.632 54.2472C398.632 55.4602 408.032 55.2902 411.532 55.6542C417.282 57.9112 419.352 58.5831 424.542 62.2461C427.002 64.1121 428.702 64.9301 429.612 67.8291C424.572 76.3671 404.822 76.5601 395.882 77.5221C397.742 80.1431 398.782 81.5792 400.312 84.4792L399.862 86.0722C388.642 88.5532 381.232 79.9032 367.552 89.5202C371.172 89.1952 377.642 87.6342 380.892 86.1592L385.102 87.8601L384.472 87.7071L383.522 88.4751L382.132 88.4682C376.732 88.4782 375.792 87.8392 372.442 92.2132C375.692 95.0872 376.872 95.7071 378.602 99.5221L379.862 100.939L385.902 101.239L383.572 102.749C385.672 104.423 384.822 103.98 387.392 104.879C377.502 104.516 370.812 110.763 368.012 107.876C369.382 105.205 370.012 104.214 370.782 101.233C357.372 95.5771 342.652 130.015 342.562 140.53C342.522 144.753 341.372 151.86 338.332 154.577C336.112 153.723 336.812 154.215 335.182 152.427C335.512 143.19 336.832 130.67 331.842 122.948C328.452 120.84 330.232 121.145 326.312 122.041L323.562 123.371C322.742 112.074 319.062 107.422 307.522 104.875L304.082 103.669L303.192 100.834C308.582 96.8541 310.232 97.7152 315.632 101.372L316.262 102.917L318.992 103.352C320.932 99.9091 322.442 93.4671 323.782 93.0221C323.782 96.3071 323.262 101.927 324.902 104.427C327.332 103.521 326.202 104.015 328.322 102.977L329.012 103.675C331.452 89.7071 342.212 47.5792 355.842 43.0652L359.192 42.4402Z" fill="#462814"/>
<path d="M359.192 42.4402C363.222 40.5072 362.782 39.8342 365.952 40.7752C366.092 41.7532 366.312 42.8751 366.302 43.8321L366.782 46.5262L367.962 46.6802C370.762 44.5562 372.682 42.8232 375.292 40.4482C374.312 50.4162 359.932 49.9402 357.822 59.0262L358.432 61.1161C363.392 61.4191 367.282 53.1992 372.402 50.7832L373.142 53.2201C378.602 49.5611 397.742 39.2812 401.602 48.0622C400.322 51.0342 398.942 52.0182 396.632 54.2472C398.632 55.4602 408.032 55.2902 411.532 55.6542C417.282 57.9112 419.352 58.5831 424.542 62.2461C419.812 65.6971 419.202 64.6432 413.592 63.1432C385.312 55.6452 356.322 71.5982 339.692 94.0542L339.322 95.9671C337.032 96.7371 337.102 96.7832 334.732 97.1632C333.602 103.43 332.302 110.091 331.412 116.361C330.592 112.398 329.452 107.625 329.012 103.675C331.452 89.7071 342.212 47.5792 355.842 43.0652L359.192 42.4402Z" fill="#9D5B32"/>
<path d="M359.192 42.4402C363.222 40.5072 362.782 39.8342 365.952 40.7752C366.092 41.7532 366.312 42.8751 366.302 43.8321L366.782 46.5262L367.962 46.6802C370.762 44.5562 372.682 42.8232 375.292 40.4482C374.312 50.4162 359.932 49.9402 357.822 59.0262L358.432 61.1161C363.392 61.4191 367.282 53.1992 372.402 50.7832L373.142 53.2201C368.702 57.0851 356.542 69.9442 353.092 69.9352C350.922 67.1912 351.642 68.7742 351.462 64.7922C355.112 61.3152 355.902 59.4292 358.412 55.0652C359.182 50.3682 362.272 50.9242 359.192 42.4402Z" fill="#3D2A1C"/>
<path d="M348.622 64.1766C349.272 60.9926 352.212 54.7085 355.482 53.3945L358.411 55.0656C355.901 59.4296 355.112 61.3155 351.462 64.7925L348.622 64.1766Z" fill="#8A522E"/>
<path d="M334.732 97.1631C336.122 91.4601 337.252 80.9531 342.662 78.7871C341.462 83.1601 338.952 89.9151 339.692 94.0541L339.322 95.9671C337.032 96.7371 337.102 96.7831 334.732 97.1631Z" fill="#462814"/>
<path d="M424.542 62.2461C427.002 64.1121 428.702 64.9301 429.612 67.8291C424.572 76.3671 404.822 76.5601 395.882 77.5221C397.742 80.1431 398.782 81.5791 400.312 84.4791L399.862 86.0721C388.642 88.5531 381.232 79.9031 367.552 89.5201C359.972 93.6081 352.922 103.361 348.372 105.465L345.732 104.282C346.452 100.948 350.852 92.2441 354.202 90.7391C357.522 86.5091 357.712 85.9691 362.222 83.3361C365.292 78.7281 381.182 73.3321 386.742 71.3071L386.722 70.9311C380.432 70.7961 379.452 71.0941 373.382 72.9071L373.252 70.4131C385.362 62.8461 400.912 64.4821 413.592 63.1431C419.202 64.6431 419.812 65.6971 424.542 62.2461Z" fill="#8A522E"/>
<path d="M362.222 83.3364C360.812 88.0024 358.462 88.7344 354.202 90.7394C357.522 86.5094 357.712 85.9694 362.222 83.3364Z" fill="#9D5B32"/>
<path d="M373.252 70.4131L373.382 72.907C368.832 74.629 365.912 75.8201 361.962 78.7191C358.312 81.3961 351.812 88.9221 347.692 89.9561L347.832 88.5571C353.502 80.7361 364.402 74.1571 373.252 70.4131Z" fill="#9D5B32"/>
<path d="M378.602 99.5223C391.812 97.3783 408.802 104.275 412.102 117.744C409.502 128.777 394.132 125.694 388.882 130.915C389.672 135.998 390.331 135.2 388.641 139.24C380.741 144.954 370.822 140.842 369.372 150.661C368.292 157.941 370.712 168.421 373.112 175.205C368.972 174.432 369.771 163.819 363.331 156.393L362.171 156.688C362.461 160.257 363.122 164.556 362.232 167.915L361.061 167.667L359.831 166.286C359.861 177.526 371.522 185.536 378.612 192.079C365.102 193.56 357.771 161.908 347.561 161.488C343.121 138.165 357.691 113.168 382.161 111.028C383.491 112.752 383.371 112.726 383.891 114.798C388.021 116.187 392.891 114.203 398.701 114.889L400.451 118.561L402.382 118.524C404.402 116.877 403.671 117.852 404.341 115.383C401.641 110.596 392.471 106.792 387.391 104.879C384.821 103.98 385.671 104.423 383.571 102.749L385.901 101.239L379.862 100.939L378.602 99.5223Z" fill="#663E25"/>
<path d="M347.562 161.489C357.772 161.909 365.102 193.561 378.612 192.08C371.522 185.537 359.862 177.527 359.832 166.287L361.062 167.668L362.232 167.916C363.122 164.557 362.462 160.258 362.172 156.689L363.332 156.394C369.772 163.82 368.972 174.433 373.112 175.206C377.462 179.766 381.832 184.537 387.182 187.832C393.362 184.112 389.612 181.884 395.622 178.331C390.252 199.765 410.992 202.835 414.922 188.042C414.102 184.685 412.472 183.293 410.232 180.659L410.521 179.427C432.121 190.682 409.221 213.039 377.281 200.197C362.451 192.443 352.732 177.007 347.562 161.489Z" fill="url(#paint2_linear_5508_4927)"/>
<path d="M334.712 167.125C344.442 171.212 349.732 169.65 347.922 183.747L347.512 187.13C342.012 180.877 338.392 174.507 334.712 167.125Z" fill="#8A522E"/>
<path d="M323.561 123.371L326.311 122.041C324.451 129.638 329.982 147.011 334.632 153.078L335.222 155.539L334.132 155.951C328.672 149.898 322.611 131.55 323.561 123.371Z" fill="#663E25"/>
<path d="M548.202 256.229L548.322 257.98C549.252 252.397 549.232 237.135 553.712 235.986C571.152 231.517 580.482 257.26 581.672 268.091L583.132 268.744C589.092 264.595 586.322 255.711 584.812 249.899C590.112 252.195 587.641 255.119 592.761 258.142L592.261 263.048L592.102 264.25C591.272 270.22 588.841 274.977 589.141 279.257L592.442 280.526C591.842 281.36 586.192 288.824 586.192 288.836L585.052 289.452C581.202 291.583 580.472 291.678 578.192 295.18L578.242 295.921C572.602 300.954 570.432 299.849 565.542 303.221C563.632 302.62 563.252 302.671 561.572 301.659C558.532 302.349 558.582 302.566 556.192 304.064C548.852 308.668 539.682 310.036 531.752 313.371C530.742 313.793 531.042 317.485 531.222 318.433C526.352 320.126 514.391 316.785 509.531 314.839C492.701 308.113 478.931 295.639 471.911 278.765C469.391 272.689 467.402 267.464 469.952 261.141L471.452 261.044L472.062 262.657L472.072 260.418C467.722 256.825 466.652 255.636 463.082 251.238L464.922 248.298C475.452 235.93 485.302 231.297 499.252 241.503C505.432 251.797 504.401 253.9 499.901 264.605C498.451 268.551 497.602 268.84 494.182 271.301L496.442 271.648C502.672 269.544 504.522 264.807 507.832 259.248C507.762 253.591 507.382 250.123 508.922 244.642C513.962 260.17 507.302 269.554 493.742 276.728C504.752 286.034 522.842 294.181 535.452 282.203C543.002 275.034 536.332 270.301 538.212 264C541.812 260.352 543.982 259.034 548.202 256.229Z" fill="#663E25"/>
<path d="M548.202 256.229L548.322 257.98C549.252 252.397 549.232 237.135 553.712 235.986C571.152 231.517 580.482 257.26 581.672 268.091L583.132 268.744C589.092 264.595 586.322 255.711 584.812 249.899C590.112 252.195 587.641 255.119 592.761 258.142L592.261 263.048L592.102 264.25C591.272 270.22 588.841 274.977 589.141 279.257L592.442 280.526C591.842 281.36 586.192 288.824 586.192 288.836L585.052 289.452C581.202 291.583 580.472 291.678 578.192 295.18L578.242 295.921C572.602 300.954 570.432 299.849 565.542 303.221C563.632 302.62 563.252 302.671 561.572 301.659C566.782 297.29 583.232 280.996 579.812 274.176C576.112 273.262 578.022 273.404 573.812 274.529L572.702 272.189C575.882 259.495 573.802 251.234 563.442 243.327L559.352 241.17L556.401 241.428C555.171 246.32 554.722 270.085 554.112 271.002L544.952 263.269C545.612 268.52 547.672 276.007 543.312 279.865C541.552 285.423 537.601 290.024 532.411 292.56C515.651 300.747 501.132 288.846 487.882 282.674C490.912 287.136 492.612 287.076 492.182 290.639C491.632 291.365 490.621 292.812 490.021 293.38C479.821 283.198 474.612 276.999 472.062 262.657L472.072 260.418C467.722 256.825 466.652 255.636 463.082 251.238L464.922 248.298C475.452 235.93 485.302 231.297 499.252 241.503C505.432 251.797 504.401 253.9 499.901 264.605C498.451 268.551 497.602 268.84 494.182 271.301L496.442 271.648C502.672 269.544 504.522 264.807 507.832 259.248C507.762 253.591 507.382 250.123 508.922 244.642C513.962 260.17 507.302 269.554 493.742 276.728C504.752 286.034 522.842 294.181 535.452 282.203C543.002 275.034 536.332 270.301 538.212 264C541.812 260.352 543.982 259.034 548.202 256.229Z" fill="#443322"/>
<path d="M464.922 248.298C475.452 235.93 485.302 231.297 499.252 241.503C505.432 251.797 504.401 253.9 499.901 264.605C482.601 275.745 467.492 251.938 489.562 248.982L491.082 248.79L490.922 247.264C480.772 239.609 474.182 252.036 472.072 260.418C467.722 256.825 466.652 255.636 463.082 251.238L464.922 248.298Z" fill="#9D5B32"/>
<path d="M490.021 293.38C519.431 324.275 578.392 297.47 565.482 253.067C564.622 250.105 562.722 246.133 563.442 243.327C573.802 251.234 575.882 259.495 572.702 272.189L573.812 274.529C578.022 273.404 576.112 273.262 579.812 274.176C583.232 280.996 566.782 297.29 561.572 301.659C558.532 302.349 558.582 302.566 556.192 304.064C548.852 308.668 539.682 310.036 531.752 313.371C530.742 313.793 531.042 317.485 531.222 318.433C526.352 320.126 514.391 316.785 509.531 314.839C492.701 308.113 478.931 295.639 471.911 278.765C469.391 272.689 467.402 267.464 469.952 261.141L471.452 261.044L472.062 262.657C474.612 276.999 479.821 283.198 490.021 293.38Z" fill="#9D5B32"/>
<path d="M573.812 274.529C572.782 277.136 571.242 280.552 568.812 281.782C568.572 278.343 570.892 275.313 572.702 272.189L573.812 274.529Z" fill="#663E25"/>
<path d="M544.952 263.269L554.112 271.002C554.722 270.085 555.172 246.32 556.402 241.428L559.352 241.17C572.952 262.4 561.462 288.425 540.492 299.574C535.392 302.289 519.502 303.883 514.142 301.45C518.282 300.052 523.812 300.976 528.292 300.54C536.812 299.711 557.632 285.51 554.772 275.98L553.682 275.811C552.462 278.547 551.672 280.273 550.212 282.935L548.662 283.294C546.542 280.544 546.772 280.179 543.312 279.865C547.672 276.007 545.612 268.52 544.952 263.269Z" fill="#9D5B32"/>
<path d="M467.562 202.516C478.822 199.731 497.552 192.195 503.792 182.074C506.822 177.155 506.242 171.146 509.962 167.949C525.862 167.433 532.972 191.806 519.342 205.821C529.612 211.42 540.512 223.858 539.022 236.157C534.952 242.527 529.322 239.691 522.792 239.013C513.902 238.09 507.862 236.661 499.752 232.691C503.762 236.741 506.792 239.258 508.922 244.642C507.382 250.123 507.762 253.591 507.832 259.248C504.522 264.807 502.672 269.545 496.442 271.649L494.182 271.302C497.602 268.841 498.452 268.551 499.902 264.605C504.402 253.9 505.432 251.797 499.252 241.503C499.682 226.717 482.632 234.035 474.222 229.43L467.372 230.23C463.252 233.199 455.492 237.377 452.712 239.854C450.452 241.324 450.152 241.35 447.682 242.464L447.452 241.577L451.582 236L449.342 233.803C448.722 230.183 448.612 232.07 450.922 228.089L450.952 227.581C445.852 219.266 469.002 211.916 470.942 205.891L467.562 202.516Z" fill="#663E25"/>
<path d="M467.372 230.231C474.402 224.24 489.372 224.549 496.792 230.265L496.411 230.839C488.021 227.925 483.162 228.822 474.222 229.43L467.372 230.231Z" fill="#F5F3ED"/>
<path d="M514.382 175.05C521.262 181.185 520.262 185.808 520.232 194.41C514.152 203.439 513.132 203.539 503.442 207.823C517.742 210.509 529.181 215.134 531.661 231.156L530.641 232.137C527.281 230.429 519.701 222.955 513.141 219.006L511.702 218.149C505.192 215.267 497.952 213.651 490.832 212.985C484.012 212.347 476.082 216.57 470.542 213.409L471.002 211.306C484.542 195.864 508.492 200.838 514.382 175.05Z" fill="#9D5B32"/>
<path d="M514.692 181.765L515.922 184.171C515.802 199.616 498.872 207.994 485.562 210.481L485.032 209.959L485.072 208.957C494.992 204.083 500.452 201.839 509.642 195.593C512.132 189.556 513.572 188.771 514.692 181.765Z" fill="#462814"/>
<path d="M418.482 51.5874C424.232 54.1264 431.142 58.5724 434.322 65.2664C441.132 79.5714 415.722 80.9935 407.732 84.6505C407.932 84.5575 405.512 93.9544 402.072 93.1824C387.902 94.5444 388.002 89.3884 372.442 92.2134C375.792 87.8394 376.732 88.4784 382.132 88.4684L383.522 88.4754L384.472 87.7074L385.102 87.8604L380.892 86.1594C377.642 87.6344 371.172 89.1954 367.552 89.5204C381.232 79.9034 388.642 88.5534 399.862 86.0724L400.312 84.4794C398.782 81.5794 397.742 80.1434 395.882 77.5224C404.822 76.5604 424.572 76.3674 429.612 67.8294C428.702 64.9304 427.002 64.1124 424.542 62.2464C419.352 58.5834 417.282 57.9114 411.532 55.6544C411.852 55.4794 412.162 55.3044 412.482 55.1304C414.652 54.1684 417.152 54.2954 419.212 55.4734C419.522 55.6914 419.832 55.9094 420.142 56.1274L421.152 55.7564L420.092 53.9865L419.032 53.5654L418.482 51.5874Z" fill="#3D2A1C"/>
<path d="M413.152 171.622C417.932 168.292 420.282 171.446 426.152 171.717C435.672 180.04 434.042 188.481 435.882 200.901L435.192 202.801C433.112 208.684 433.792 210.559 430.452 216.074L429.582 216.478C427.952 214.166 428.392 215.159 428.102 212.226C424.192 210.307 422.232 209.093 421.572 204.387C422.442 203.033 423.282 201.654 424.072 200.253C431.012 187.757 424.922 177.461 413.152 171.622Z" fill="#51331F"/>
<path d="M387.182 187.831C387.402 164.985 409.102 157.646 426.152 171.716C420.282 171.445 417.932 168.291 413.152 171.621L410.572 171.626C403.622 170.2 401.062 174.717 395.622 178.33C389.612 181.883 393.362 184.111 387.182 187.831Z" fill="#3D2A1C"/>
<path d="M203.114 604.785C198.387 601.285 193.45 598.305 190.756 593.145L192.072 592.755C199.383 596.045 202.72 600.005 208.253 605.605C203.932 612.225 194.436 618.555 193.25 625.705C193.041 626.975 195.618 628.775 196.907 629.975C199.711 629.615 198.777 630.055 200.962 628.375C202.307 623.325 201.835 621.725 206.941 620.275C204.429 623.905 204.284 622.915 204.274 626.565C206.081 629.745 209.417 631.605 212.484 633.755C217.047 628.785 226.389 617.525 230.605 613.685C237.862 618.825 248.883 627.765 255.524 634.025L248.599 642.755L239.757 652.995C242.643 655.575 245.479 658.275 248.634 660.515C253.608 654.535 259.33 647.405 264.611 641.755C274.238 647.915 295.455 665.905 302.582 674.475C294.811 684.705 274.019 712.345 264.419 718.385C257.112 718.765 236.759 694.705 229.946 695.205C230.873 701.655 237.468 706.065 242.388 710.055L235.277 719.935C240.858 725.395 246.346 730.955 251.738 736.605C245.616 743.755 239.239 751.485 232.997 758.465C229.379 755.805 216.629 745.645 213.476 745.265C210.442 749.035 207.787 751.205 204.204 754.395C200.42 750.775 196.295 747.425 192.282 744.045L189.616 747.155L189.821 748.815C199.096 755.855 207.253 761.925 215.905 769.745L211.367 769.125C210.341 771.085 210.578 770.215 210.32 771.605L209.469 772.525C204.014 769.435 186.877 755.055 180.497 750.225L179.071 750.775L178.695 752.225C181.576 759.085 198.408 769.175 204.902 773.205C196 783.455 187.116 794.275 178.303 804.665C172.984 801.595 162.223 792.005 156.71 787.565C162.22 780.605 168.486 773.475 174.303 766.735C169.128 762.135 153.259 750.425 147.324 746.115C141.525 753.145 135.684 760.135 129.802 767.095C126.848 764.765 123.686 761.995 120.772 759.555C126.386 751.555 132.284 744.395 138.425 736.815C131.18 729.145 118.51 719.245 109.822 712.905L104.002 722.775C101.254 719.095 101.677 718.345 101.99 713.705C99.1699 716.995 92.1258 726.005 88.9238 727.525C89.4108 726.485 96.6958 716.575 97.9338 714.825C106.859 701.705 116.58 688.685 125.781 675.835C131.692 667.585 147.473 649.505 148.947 640.825C155.075 633.745 166.676 621.645 173.347 614.795L176.093 614.985C180.427 609.805 184.684 604.565 188.865 599.255L190.472 601.265L193.397 603.355L194.79 606.615C194.383 611.945 182.393 622.505 181.069 626.735L182.647 630.055L183.559 630.535L186.59 631.545L189.857 629.615C188.758 628.485 188.481 627.795 187.634 626.435C188.383 620.465 198.704 609.875 203.114 604.785Z" fill="#9D5B32"/>
<path d="M203.114 604.785C198.387 601.285 193.45 598.305 190.756 593.145L192.072 592.755C199.383 596.045 202.72 600.005 208.253 605.605C203.932 612.225 194.436 618.555 193.25 625.705C193.041 626.975 195.618 628.775 196.907 629.975C199.711 629.615 198.777 630.055 200.962 628.375C202.307 623.325 201.835 621.725 206.941 620.275C204.429 623.905 204.284 622.915 204.274 626.565C206.081 629.745 209.417 631.605 212.484 633.755C217.047 628.785 226.389 617.525 230.605 613.685C237.862 618.825 248.883 627.765 255.524 634.025L248.599 642.755L239.757 652.995C242.643 655.575 245.479 658.275 248.634 660.515C253.608 654.535 259.33 647.405 264.611 641.755C274.238 647.915 295.455 665.905 302.582 674.475C294.811 684.705 274.019 712.345 264.419 718.385C257.112 718.765 236.759 694.705 229.946 695.205C230.873 701.655 237.468 706.065 242.388 710.055L235.277 719.935C240.858 725.395 246.346 730.955 251.738 736.605C245.616 743.755 239.239 751.485 232.997 758.465C229.379 755.805 216.629 745.645 213.476 745.265L213.673 744.525C217.455 742.185 217.886 744.605 222.875 743.145C221.365 741.375 220.546 740.075 219.446 738.015C222.642 739.465 228.561 744.665 231.606 747.115L240.871 736.425C236.209 731.755 230.5 726.305 225.164 722.515C225.034 717.795 228.754 714.885 232.043 711.275C227.354 706.885 222.1 701.225 217.183 697.435L214.377 699.135L213.301 698.205C212.815 691.585 227.474 676.775 232.36 671.445L230.809 669.775C230.025 669.855 229.241 669.935 228.457 670.015C221.841 677.325 216.195 686.685 208.012 692.395L207.535 690.975C210.976 684.835 223.402 670.725 228.612 665.485C224.512 661.525 221.096 659.175 220.896 653.775C220.057 651.905 220.702 652.705 218.839 651.465L214.863 654.105L213.408 653.575C206.199 649.515 189.349 636.635 183.559 630.535L186.59 631.545L189.857 629.615C188.758 628.485 188.481 627.795 187.634 626.435C188.383 620.465 198.704 609.875 203.114 604.785Z" fill="#51331F"/>
<path d="M203.114 604.785C198.387 601.285 193.45 598.305 190.756 593.145L192.072 592.755C199.383 596.045 202.72 600.005 208.253 605.605C203.932 612.225 194.436 618.555 193.25 625.705C193.041 626.975 195.618 628.775 196.907 629.975C199.711 629.615 198.777 630.055 200.962 628.375C202.307 623.325 201.835 621.725 206.941 620.275C204.429 623.905 204.284 622.915 204.274 626.565C206.081 629.745 209.417 631.605 212.484 633.755C217.047 628.785 226.389 617.525 230.605 613.685C237.862 618.825 248.883 627.765 255.524 634.025L248.599 642.755L246.108 642.315C244.216 640.265 244.303 637.525 243.649 634.245C236.322 648.995 221.222 651.075 241.391 664.185C253.887 672.315 256.242 661.615 266.071 651.725C275.288 658.375 282.856 667.745 292.644 673.725C282.812 684.545 272.344 698.195 263.324 709.795C254.339 702.015 245.504 694.075 236.824 685.955C239.308 685.675 257.689 700.525 261.592 703.205C268.99 695.625 278.724 683.155 285.713 674.635C280.597 669.105 275.472 662.085 268.529 660.005C261.946 660.515 254.253 672.175 249.229 677.965C242.263 672.325 228.03 657.155 223.395 654.525C228.471 647.875 239.547 640.045 236.667 631.755C233.296 629.095 234.848 629.255 231.692 629.315C225.414 634.315 218.975 642.795 213.337 649.105C203.241 642.165 198.342 638.385 189.857 629.615C188.758 628.485 188.481 627.795 187.634 626.435C188.383 620.465 198.704 609.875 203.114 604.785Z" fill="#9D5B32"/>
<path d="M230.605 613.686C237.862 618.826 248.883 627.766 255.524 634.026L248.599 642.756L246.108 642.316C244.216 640.266 244.303 637.526 243.649 634.246C240.596 629.346 235.879 626.486 231.194 622.976C224.985 629.216 219.741 635.986 214.222 642.836C207.925 639.146 201.952 635.276 196.907 629.976C199.711 629.616 198.777 630.056 200.962 628.376C202.307 623.326 201.835 621.726 206.941 620.276C204.429 623.906 204.284 622.916 204.274 626.566C206.081 629.746 209.417 631.606 212.484 633.756C217.047 628.786 226.389 617.526 230.605 613.686Z" fill="#3D2A1C"/>
<path d="M213.408 653.575C221.333 645.815 229.224 636.415 237.413 629.625C235.467 634.265 224.303 650.465 220.896 653.775C220.057 651.905 220.702 652.705 218.839 651.465L214.863 654.105L213.408 653.575Z" fill="#9D5B32"/>
<path d="M278.179 673.715C278.576 675.475 278.359 675.315 278.096 677.235C273.795 683.085 265.615 693.905 260.156 697.965L259.916 695.805C265.391 687.215 271.106 681.035 278.179 673.715Z" fill="#9D5B32"/>
<path d="M133.654 675.335C129.997 681.895 113.516 702.325 113.132 706.855C120.662 701.395 125.206 692.675 132.907 686.895C130.469 690.865 116.196 710.445 115.631 711.785C122.587 710.525 128.536 701.025 131.124 701.865C127.473 706.735 123.586 709.085 121.206 714.115L121.894 716.165C124.489 715.535 124.857 714.905 127.038 713.245C127.425 717.425 124.353 716.065 125.441 717.555C128.974 722.385 138.623 730.945 142.599 735.635L142.105 736.545C139.272 741.675 128.686 755.205 129.048 759.165C135.333 753.945 142.372 742.475 148.272 743.185C153.807 743.845 161.066 752.805 166.376 753.925C167.024 753.575 167.672 753.225 168.321 752.875L172.143 749.045C173.415 751.685 172.048 751.325 173.927 753.685C174.763 749.635 186.232 737.125 189.568 733.035C194.92 736.625 198.016 738.505 201.976 743.645L197.155 740.375C195.932 742.165 196.389 741.145 195.923 743.505L192.282 744.045L189.616 747.155L189.821 748.815C199.096 755.855 207.253 761.925 215.905 769.745L211.367 769.125C210.341 771.085 210.578 770.215 210.32 771.605L209.469 772.525C204.014 769.435 186.877 755.055 180.497 750.225L179.071 750.775L178.695 752.225C181.576 759.085 198.408 769.175 204.902 773.205C196 783.455 187.116 794.275 178.303 804.665C172.984 801.595 162.223 792.005 156.71 787.565C162.22 780.605 168.486 773.475 174.303 766.735C169.128 762.135 153.259 750.425 147.324 746.115C141.525 753.145 135.684 760.135 129.802 767.095C126.848 764.765 123.686 761.995 120.772 759.555C126.386 751.555 132.284 744.395 138.425 736.815C131.18 729.145 118.51 719.245 109.822 712.905L104.002 722.775C101.254 719.095 101.677 718.345 101.99 713.705C108.709 702.805 124.134 683.105 133.654 675.335Z" fill="#663E25"/>
<path d="M196.936 773.846C197.595 774.646 197.203 774.056 197.599 775.866C194.216 780.226 191.077 783.926 187.475 788.086L186.679 786.726C188.776 782.636 193.759 777.476 196.936 773.846Z" fill="#9D5B32"/>
<path d="M201.976 743.645L203.295 743.885C206.95 742.575 208.117 738.885 212.669 735.625C216.864 735.005 215.225 734.905 219.515 737.195L219.446 738.015C220.546 740.075 221.365 741.375 222.875 743.145C217.886 744.605 217.455 742.185 213.673 744.525L213.476 745.265C210.442 749.035 207.787 751.205 204.204 754.395C200.42 750.775 196.295 747.425 192.282 744.045L195.923 743.505C196.389 741.145 195.932 742.165 197.155 740.375L201.976 743.645Z" fill="#443322"/>
<path d="M188.865 599.255L190.472 601.265C177.9 616.825 164.627 633.505 150.642 647.775C157.716 636.505 167.47 625.295 176.093 614.985C180.427 609.805 184.684 604.565 188.865 599.255Z" fill="#462814"/>
<path d="M193.397 603.355L194.79 606.615C190.854 608.695 164.674 642.596 157.339 649.396C163.168 639.726 185.123 612.655 193.397 603.355Z" fill="#462814"/>
<path d="M168.321 752.876C166.665 751.796 167.165 752.546 166.758 750.676C172.571 742.676 179.754 734.926 186.343 727.476L187.866 727.486C186.677 732.516 176.104 742.986 172.814 748.006L172.143 749.046L168.321 752.876Z" fill="#462814"/>
<path d="M181.068 626.735L182.646 630.055C177.676 635.055 177.006 638.855 169.585 643.855C172.154 638.895 177.607 631.835 181.068 626.735Z" fill="#462814"/>
<path d="M194.825 653.556C202.594 657.566 209.918 664.576 216.245 670.566C211.938 677.236 201.564 686.776 200.312 692.196C201.29 698.366 212.064 704.816 217.526 709.826C212.037 717.266 207.026 722.836 200.712 729.536C193.053 724.836 188.051 720.606 181.081 714.886C176.34 719.576 166.493 733.386 161.555 734.006L160.861 730.846L158.527 732.946C153.444 732.326 145.036 722.996 141.305 719.266C146.892 711.666 152.73 704.746 158.748 697.506C153.531 692.516 146.362 687.706 141.9 682.666C136.995 677.136 150.773 662.946 154.775 659.836C160.378 659.096 170.31 671.416 176.757 675.436L194.825 653.556Z" fill="#3D2A1C"/>
<path d="M196.064 663.495C199.24 665.425 203.706 669.755 206.649 672.375C200.469 679.595 193.902 686.915 188.555 694.745C194.232 701.075 200.44 706.125 207.326 711.035C204.486 715.465 202.974 716.925 199.391 720.725C193.014 715.865 186.367 710.165 180.005 705.085C172.895 711.185 167.695 719.775 160.87 726.835C157.363 724.115 153.941 720.995 150.59 718.065C155.854 712.665 165.408 704.315 166.827 697.545C165.82 690.915 154.66 683.485 148.74 678.335L156.626 668.665C162.589 673.895 170.889 681.695 177.439 685.655C183.375 679.605 191.062 670.175 196.064 663.495Z" fill="#EBE1CA"/>
<path d="M223.366 733.735C219.64 730.015 215.81 725.395 221.704 721.355L222.883 722.565C221.576 732.255 232.357 732.485 235.76 738.115C233.823 740.365 234.994 739.425 231.518 740.185C227.984 738.315 226.337 736.475 223.366 733.735Z" fill="#462814"/>
<path d="M181.92 722.775L182.855 724.355C179.379 730.695 168.558 741.425 163.32 748.175L162.667 747.485C162.701 743.785 178.459 726.795 181.92 722.775Z" fill="#462814"/>
<path d="M280.025 121.474C281.177 106.513 287.615 99.5593 303.192 100.834L304.082 103.669L307.522 104.875C308.302 108.498 308.582 109.104 308.082 112.896L307.902 114.136C309.412 116.582 310.092 117.641 312.132 119.683C324.522 132.112 325.642 153.198 334.712 167.125C338.392 174.507 342.012 180.877 347.512 187.13C353.602 193.377 363.642 202.539 371.932 205.54C382.872 211.488 398.512 214.772 409.192 207.084C412.912 204.403 415.562 201.053 419.942 199.431L420.462 200.565C414.472 214.1 395.242 216.697 382.672 212.867C379.102 211.779 373.542 208.374 370.512 208.491L371.462 211.091C376.022 214.93 384.632 215.671 390.622 215.808C404.232 216.119 411.952 213.187 421.572 204.386C422.232 209.092 424.192 210.306 428.102 212.225C428.392 215.158 427.952 214.165 429.582 216.477L430.452 216.073C433.792 210.558 433.112 208.683 435.192 202.8L435.882 200.9C437.402 198.374 437.752 192.831 437.792 189.89C437.962 177.992 427.532 168.671 419.802 160.89C418.112 152.594 415.922 147.546 412.822 139.652C411.842 137.152 412.952 136.012 414.092 134.326C424.902 129.924 440.432 138.464 447.992 146.362C460.842 131.955 486.862 136.191 483.842 149.946C481.402 152.926 477.822 153.52 474.052 154.7C464.062 166.652 462.282 184.898 459.202 200.375C465.602 204.155 462.042 200.73 467.562 202.515L470.942 205.891C469.002 211.916 445.852 219.266 450.952 227.581L450.922 228.088C448.612 232.069 448.722 230.183 449.342 233.803L451.582 235.999L447.452 241.577L447.682 242.463C450.152 241.349 450.452 241.324 452.712 239.854C455.192 242.428 455.722 242.274 459.112 243.312C456.192 244.847 452.662 246.547 449.972 248.362C448.452 254.635 447.792 257.983 445.142 263.879C444.032 261.18 444.452 261.358 442.652 259.308L441.812 260.741L437.672 259.791C436.532 255.076 443.402 254.148 440.162 244.034L438.882 240.607C441.222 237.475 441.492 236.434 440.522 232.89C435.722 230.286 431.392 232.434 425.982 233.989C422.682 231.127 423.032 231.956 418.102 230.928L417.422 229.171L419.052 225.617C414.692 227.789 409.522 232.858 407.902 232.068C403.222 229.783 398.262 225.491 392.542 226.585C387.902 230.793 392.192 243.411 387.202 253.388L378.922 266.324C381.052 257.629 381.922 255.093 381.212 246.324C380.222 249.306 380.592 250.659 378.932 253.865C377.022 252.603 377.092 251.713 375.912 249.301C373.542 257.775 373.082 267.45 366.782 274.277C363.252 278.139 358.232 280.29 353.002 280.176C323.372 279.648 338.492 235.068 357.522 256.984C360.282 260.161 356.992 267.058 351.982 268.613C348.852 268.191 347.872 266.547 345.562 264.2L344.592 263.207C342.842 266.424 342.432 267.757 344.852 270.393C352.982 272.967 357.362 271.136 362.942 265.382C368.532 244.703 366.082 228.157 346.922 215.51L345.372 216.24C346.262 219.861 349.742 219.879 351.742 225.443L350.132 227.047C332.622 210.328 329.242 224.327 319.572 223.71C316.742 221.675 314.922 218.456 313.832 215.209C309.452 202.058 322.432 196.992 331.852 193.889L331.902 192.892C327.842 185.171 323.802 177.865 319.962 169.28C314.022 155.984 310.112 137.611 299.922 126.341C297.069 123.18 284.54 121.963 280.025 121.474Z" fill="#663E25"/>
<path d="M425.242 216.589L425.372 218.008C425.672 221.404 425.082 223.668 426.872 226.206C430.022 225.093 429.922 222.657 432.872 219.132C434.672 221.311 435.152 222.048 437.292 223.954C439.672 222.804 440.022 222.597 442.162 221.028C442.042 223.215 441.902 223.017 441.092 224.968C441.962 228.615 441.042 227.262 443.282 229.579C446.652 229.143 447.832 227.841 450.922 228.088C448.612 232.069 448.722 230.183 449.342 233.803L451.582 235.999L447.452 241.577L447.682 242.463C450.152 241.349 450.452 241.324 452.712 239.854C455.192 242.428 455.722 242.274 459.112 243.312C456.192 244.847 452.662 246.547 449.972 248.362C448.452 254.635 447.792 257.983 445.142 263.879C444.032 261.18 444.452 261.358 442.652 259.308L441.812 260.741L437.672 259.791C436.532 255.076 443.402 254.148 440.162 244.034L438.882 240.607C441.222 237.475 441.492 236.434 440.522 232.89C435.722 230.286 431.392 232.434 425.982 233.989C422.682 231.127 423.032 231.956 418.102 230.928L417.422 229.171L419.052 225.617C422.872 223.398 423.392 220.816 425.242 216.589Z" fill="#3D2A1C"/>
<path d="M381.212 246.324C381.372 240.483 374.722 224.719 376.172 222.463C389.452 226.898 409.252 226.722 420.112 216.389C421.922 214.661 422.242 214.023 424.642 213.132L425.242 216.589C423.392 220.816 422.872 223.398 419.052 225.617C414.692 227.789 409.522 232.858 407.902 232.068C403.222 229.783 398.262 225.491 392.542 226.585C387.902 230.793 392.192 243.411 387.202 253.388L378.922 266.324C381.052 257.629 381.922 255.093 381.212 246.324Z" fill="#F5F3ED"/>
<path d="M442.162 221.028C450.472 206.301 452.762 203.533 456.072 186.773C460.452 191.426 453.892 196.69 457.782 204.12L459.202 200.375C465.602 204.155 462.042 200.73 467.562 202.515L470.942 205.891C469.002 211.916 445.852 219.266 450.952 227.581L450.922 228.088C447.832 227.841 446.652 229.143 443.282 229.579C441.042 227.262 441.962 228.615 441.092 224.968C441.902 223.017 442.042 223.215 442.162 221.028Z" fill="#51331F"/>
<path d="M459.202 200.375C465.602 204.155 462.042 200.73 467.562 202.515C465.752 204.147 459.322 208.585 457.342 209.938L455.852 209.638L457.781 204.12L459.202 200.375Z" fill="#F5F3ED"/>
<path d="M307.902 114.137L304.352 113.986L303.532 115.086C307.152 119.333 314.362 125.789 316.222 130.619C322.162 146.068 328.312 161.325 334.672 176.61L333.692 177.277C322.202 157.684 320.542 135.925 305.832 120.944C299.772 114.765 296.083 115.592 288.531 116.024L288.038 114.994C290.138 113.885 289.514 114.302 291.39 112.595L289.728 111.08C294.39 104.114 302.962 109.186 308.082 112.897L307.902 114.137Z" fill="#9D5B32"/>
<path d="M537.012 339.944L537.272 338.161C539.892 336.485 538.512 337.159 542.642 337.562L542.252 337.885C546.432 338.584 557.392 339.603 559.472 335.417C556.562 332.674 543.332 332.178 538.842 332.112C500.282 331.546 448.342 296.528 463.082 251.238C466.652 255.636 467.722 256.825 472.072 260.418L472.062 262.657L471.452 261.044L469.952 261.141C467.402 267.464 469.392 272.689 471.912 278.765C478.932 295.639 492.702 308.113 509.532 314.839C514.392 316.785 526.352 320.126 531.222 318.433C535.082 317.775 539.152 317.861 541.102 317.477C547.562 316.212 564.292 309.742 570.872 312.406C571.092 318.298 567.592 317.238 568.062 322.446C576.642 322.915 579.652 319.9 586.782 326.815C589.502 329.455 591.072 330.21 592.302 334.064C590.772 336.923 590.112 336.671 586.852 337.644C591.332 342.986 594.522 342.381 594.912 349.623C596.932 350.73 596.832 350.751 599.082 351.129C597.252 357.486 590.612 366.285 583.502 365.642C566.382 355.965 590.542 343.554 537.012 339.944Z" fill="#663E25"/>
<path d="M415.222 346.066C420.052 342.12 424.392 345.464 426.092 342.213C408.762 339.731 405.922 322.303 416.162 311.222C438.052 287.532 485.832 307.481 493.532 336.022C495.652 343.907 490.182 328.52 493.952 338.644C495.442 338.317 498.102 337.209 499.632 336.635C498.552 356.969 482.172 361.616 467.612 348.843C470.782 346.299 474.952 343.779 474.792 339.241C474.292 325.603 454.602 317.094 442.892 319.482C443.912 324.618 448.142 326.611 446.122 334.049C442.602 346.987 426.732 355.141 415.222 346.066Z" fill="#663E25"/>
<path d="M425.982 233.989C431.392 232.434 435.722 230.286 440.522 232.89C441.492 236.434 441.222 237.475 438.882 240.607L440.162 244.034C443.402 254.148 436.532 255.076 437.672 259.791L441.812 260.741L442.652 259.308C444.452 261.358 444.032 261.18 445.142 263.879C445.532 266.066 450.702 269.658 452.722 270.638C454.102 274.899 454.472 275.573 454.562 279.947C445.502 286.891 441.602 280.853 427.532 291.745L425.882 290.744L421.352 294.377L423.442 291.166L422.992 289.697L419.842 289.491C412.912 294.776 412.272 298.336 409.232 305.72L408.082 305.107C407.022 300.268 409.842 296.348 412.312 292.49L413.312 290.941L413.302 289.598L410.222 287.341C404.672 289.508 401.672 303.118 400.902 308.667L399.752 308.436C398.412 304.648 399.182 304.601 400.052 299.962L398.822 299.259L396.282 301.879L394.222 300.903C395.422 296.188 398.522 289.944 398.222 286.227C395.732 284.95 394.852 285.5 392.012 286.031L388.212 283.506C399.652 275.485 407.382 264.319 407.362 250.044C407.352 246.208 406.932 241.808 408.432 238.456C411.952 238.34 408.302 240.171 412.012 243.498C414.362 241.937 416.832 236.285 418.302 233.482C424.812 231.353 418.822 235.39 425.982 233.989Z" fill="#9D5B32"/>
<path d="M441.812 260.742L442.652 259.309C444.452 261.359 444.032 261.181 445.142 263.88C445.532 266.067 450.702 269.659 452.722 270.639C454.102 274.9 454.472 275.574 454.562 279.948C445.502 286.892 441.602 280.854 427.532 291.746L425.882 290.745L421.352 294.378L423.442 291.167L422.992 289.698L419.842 289.492C412.912 294.777 412.272 298.337 409.232 305.721L408.082 305.108C407.022 300.269 409.842 296.349 412.312 292.491L413.312 290.942L413.302 289.599C414.792 284.303 427.152 276.897 432.582 276.103C436.842 275.48 440.252 275.535 444.602 274.331C440.232 267.185 419.972 278.563 413.762 280.928L413.422 280.075C424.362 267.468 438.112 268.602 441.812 260.742Z" fill="#663E25"/>
<path d="M414.362 271.57C419.092 261.688 431.172 248.258 438.882 240.607L440.162 244.034C432.312 256.894 425.972 261.985 414.362 271.57Z" fill="#462814"/>
<path d="M427.742 238.54C429.972 239.28 429.162 238.59 430.272 240.489C428.752 245.087 425.372 248.242 422.122 251.979L420.362 251.32C420.582 245.402 423.812 242.95 427.742 238.54Z" fill="#462814"/>
<path d="M109.821 712.905C118.509 719.245 131.179 729.145 138.424 736.815C132.283 744.395 126.385 751.555 120.771 759.555C123.685 761.995 126.847 764.765 129.801 767.095C135.683 760.135 141.524 753.145 147.323 746.115C153.258 750.425 169.127 762.135 174.302 766.735C168.485 773.475 162.219 780.605 156.709 787.565C162.222 792.005 172.983 801.595 178.302 804.665C187.115 794.275 195.999 783.455 204.901 773.205C198.407 769.175 181.575 759.085 178.694 752.225L179.07 750.775L180.496 750.225C186.876 755.055 204.013 769.435 209.468 772.525L209.557 774.595C202.54 783.175 187.161 803.055 179.052 809.475C173.488 809.285 155.619 792.045 150.62 787.475C157.016 780.565 161.116 775.265 166.522 767.605C159.017 761.705 154.485 758.055 147.797 751.355C142.5 756.095 134.853 765.665 129.576 771.485C106.763 755.835 121.159 755.315 132.639 737.735C127.278 732.515 119.832 723.885 113.055 722.325C106.942 723.025 97.8345 735.855 92.9275 741.355C86.5415 737.375 81.1565 732.645 75.9835 727.235L76.1745 725.855L75.4415 726.525L75.1895 726.105L75.5544 725.495C81.3204 728.105 86.3535 732.665 91.3735 736.675C97.0445 731.475 99.1725 728.825 104.001 722.775L109.821 712.905Z" fill="#9D5B32"/>
<path d="M387.202 253.388C392.192 243.411 387.902 230.793 392.542 226.585C398.262 225.491 403.222 229.783 407.902 232.068C409.522 232.858 414.692 227.789 419.052 225.617L417.422 229.171L418.102 230.928C423.032 231.956 422.682 231.127 425.982 233.989C418.822 235.39 424.812 231.353 418.302 233.482C416.832 236.285 414.362 241.937 412.012 243.498C408.302 240.171 411.952 238.34 408.432 238.456C406.932 241.808 407.352 246.208 407.362 250.044C407.382 264.319 399.652 275.485 388.212 283.506C379.922 288.483 374.922 289.515 365.222 290L367.602 287.386L365.962 286.765C367.952 285.103 376.042 279.537 376.762 278.444C375.002 278.333 373.252 278.177 371.492 277.975L371.542 278.045L372.452 276.176C376.182 274.578 377.582 274.202 380.322 271.257C384.312 263.865 393.212 262.047 387.202 253.388Z" fill="#462814"/>
<path d="M380.322 271.257C389.452 265.742 395.222 255.917 397.422 245.654C398.032 242.726 398.542 239.778 398.942 236.816L400.092 236.508C415.532 258.078 391.292 286.608 367.602 287.386L365.962 286.765C367.952 285.103 376.042 279.537 376.762 278.444C375.002 278.333 373.252 278.177 371.492 277.975L371.542 278.045L372.452 276.176C376.182 274.578 377.582 274.202 380.322 271.257Z" fill="#8A522E"/>
<path d="M88.9235 727.525C86.2005 725.745 85.4505 725.955 84.4365 723.485C98.9485 703.035 113.441 682.845 129.524 663.595C135.43 656.525 142.366 646.905 148.947 640.825C147.473 649.505 131.692 667.585 125.781 675.835C116.58 688.685 106.859 701.705 97.9335 714.825C96.6955 716.575 89.4105 726.485 88.9235 727.525Z" fill="#663E25"/>
<path d="M427.532 291.745C441.602 280.853 445.502 286.891 454.562 279.947C455.532 285.75 458.702 291.662 461.292 297.023C443.952 293.611 436.832 294.071 419.732 299.353C421.762 297.365 425.522 293.427 427.532 291.745Z" fill="#F5F3ED"/>
<path d="M449.972 248.362C452.662 246.547 456.192 244.847 459.112 243.312C457.022 254.936 452.172 252.315 452.722 270.638C450.702 269.658 445.532 266.066 445.142 263.879C447.792 257.983 448.452 254.635 449.972 248.362Z" fill="#F5F3ED"/>
<path d="M115.047 749.045L118.37 749.865C117.258 754.105 114.629 753.495 113.661 759.435C114.59 762.785 120.051 766.325 123.294 770.595L122.2 771.465C120.186 771.035 118.263 770.475 116.241 770.455C112.185 767.715 109.802 764.845 106.45 761.315C109.16 756.335 111.595 753.435 115.047 749.045Z" fill="#443322"/>
<path d="M394.222 300.903L396.282 301.879L398.822 299.259L400.052 299.962C399.182 304.601 398.412 304.648 399.752 308.436L400.902 308.667C400.572 312.645 401.592 315.949 400.732 319.193L398.182 317.702C397.372 318.521 396.562 319.34 395.762 320.158L394.172 318.351C392.442 312.308 392.712 306.959 394.222 300.903Z" fill="#663E25"/>
<path d="M388.212 283.506L392.012 286.031C386.332 289.881 371.482 295.208 365.212 291.684L365.222 290C374.922 289.515 379.922 288.483 388.212 283.506Z" fill="#9D5B32"/>
<path d="M210.32 771.605C210.578 770.215 210.341 771.085 211.367 769.125L215.905 769.745C219.301 772.315 218.219 770.715 219.549 774.485C218.817 776.035 218.948 776.425 217.799 777.255C216.082 777.475 215.1 778.505 212.424 778.865C211.869 775.935 211.56 774.375 210.32 771.605Z" fill="#51331F"/>
<path d="M173.347 614.795C177.053 610.025 183.417 600.435 188.865 599.255C184.684 604.565 180.427 609.805 176.093 614.985L173.347 614.795Z" fill="#9D5B32"/>
<path d="M191.377 498.785C190.745 497.62 190.821 497.388 190.51 496.066C196.235 487.652 208.524 473.661 215.287 465.555L260.039 411.942C263.899 407.316 287.981 377.525 290.615 375.338L292.101 375.751L296.088 378.994L298.982 381.593C300.702 384.299 299.542 383.541 302.362 384.243L307.622 389.536L311.202 391.724L312.682 394.767L315.382 398.484C315.702 400.586 315.872 399.595 314.892 401.459C317.542 401.283 320.182 401.536 322.832 401.699C323.032 404.5 225.734 521.505 222.326 522.525C221.282 520.825 221.472 520.755 219.747 519.725C217.201 519.595 217.994 519.425 215.275 517.655L213.032 517.215L207.814 512.111C204.338 510.173 201.189 507.361 196.844 504.916L196.402 505.171C193.576 503.968 193.275 502.055 191.377 498.785Z" fill="#9D5B32"/>
<path d="M307.621 389.536L311.201 391.724L312.681 394.767L315.381 398.484C315.701 400.586 315.871 399.595 314.891 401.459C317.541 401.283 320.181 401.536 322.831 401.699C323.031 404.5 225.734 521.505 222.326 522.525C221.282 520.825 221.471 520.755 219.746 519.725C217.2 519.595 217.993 519.425 215.274 517.655L213.031 517.215L207.813 512.111C220.302 492.872 237.953 473.787 252.475 455.871C256.185 451.294 261.209 448.9 263.5 445.467L263.102 443.844C268.902 434.293 298.871 399.609 307.621 389.536Z" fill="#8A522E"/>
<path d="M314.892 401.459C317.542 401.283 320.182 401.536 322.832 401.699C323.032 404.5 225.734 521.505 222.326 522.525C221.282 520.825 221.472 520.755 219.747 519.725C223.348 512.969 244.676 487.468 250.584 480.235C272.201 454.124 293.638 427.865 314.892 401.459Z" fill="#51331F"/>
<path d="M312.682 394.768L315.382 398.485C315.702 400.587 315.872 399.596 314.892 401.46C293.638 427.866 272.201 454.125 250.584 480.236C244.676 487.469 223.348 512.97 219.747 519.726C217.201 519.596 217.994 519.426 215.275 517.656L213.032 517.216C215.329 513.246 224.778 502.416 228.309 498.174C238.325 486.196 248.267 474.155 258.132 462.052L297.812 413.03C301.442 408.516 309.252 397.612 312.682 394.768Z" fill="#462814"/>
<path d="M315.382 398.484C315.702 400.586 315.872 399.595 314.892 401.459C293.638 427.865 272.201 454.124 250.584 480.235C244.676 487.468 223.348 512.969 219.747 519.725C217.201 519.595 217.994 519.425 215.275 517.655C240.036 492.846 261.435 461.272 284.749 434.826C293.021 425.442 306.272 405.143 315.382 398.484Z" fill="#9D5B32"/>
<path d="M307.622 389.536L311.202 391.724C303.732 395.023 272.713 435.916 263.501 445.467L263.103 443.844C268.903 434.293 298.872 399.609 307.622 389.536Z" fill="#462814"/>
<path d="M191.377 498.785C190.745 497.62 190.821 497.388 190.51 496.066C196.235 487.652 208.524 473.661 215.287 465.555L260.039 411.942C263.899 407.316 287.981 377.525 290.615 375.338L292.101 375.751L296.088 378.994C290.52 383.294 269.884 409.342 263.9 416.703C242.191 443.41 214.645 472.953 194.817 500.582C195.583 502.7 195.682 503.002 196.844 504.916L196.402 505.171C193.576 503.968 193.275 502.055 191.377 498.785Z" fill="#462814"/>
<path d="M191.377 498.785C190.745 497.62 190.821 497.388 190.51 496.066C196.235 487.652 208.524 473.661 215.287 465.555L260.039 411.942C263.899 407.316 287.981 377.525 290.615 375.338L292.101 375.751C287.724 383.765 276.853 396.001 270.726 403.392L225.821 456.942C221.062 462.699 195.012 495.612 191.377 498.785Z" fill="#9D5B32"/>
<path d="M298.982 381.594C300.702 384.3 299.542 383.542 302.362 384.244C298.982 387.576 298.332 388.549 294.194 390.617C294.393 388.16 297.422 384.227 298.982 381.594Z" fill="#462814"/>
<path d="M97.4885 607.805C113.562 586.925 135.125 562.475 152.605 541.325L155.022 542.095C157.598 543.015 157.051 542.595 159.177 544.135L163.058 547.695L164.735 549.265L167.067 549.395C168.634 553.705 162.305 560.965 159.682 564.735C162.506 562.335 170.421 554.685 172.804 554.215C172.893 556.875 172.113 556.805 169.971 559.535L172.151 560.855C172.081 562.455 53.9075 704.665 42.7275 719.275C37.4715 725.955 31.3035 737.055 23.9745 739.225C20.7565 738.765 20.9715 738.855 18.3525 736.925L16.1535 738.565C14.1415 735.765 14.4416 728.935 13.4716 724.675C12.4886 721.055 13.0866 719.855 13.9376 716.235L11.4985 715.155C14.0005 707.335 86.9855 620.045 97.4885 607.805Z" fill="#9D5B32"/>
<path d="M97.4888 607.805C113.562 586.925 135.125 562.475 152.605 541.325L155.022 542.095C150.609 549.085 145.076 554.495 140.285 560.935L138.98 562.935L140.131 565.535C138.717 568.415 107.747 606.205 105.829 608.055C94.0238 619.435 27.4858 707.745 18.6558 711.025C19.1928 706.715 91.1858 620.555 100.138 609.475L97.4888 607.805Z" fill="#462814"/>
<path d="M97.4888 607.805C113.562 586.925 135.125 562.475 152.605 541.325L155.022 542.095C150.609 549.085 145.076 554.495 140.285 560.935L138.98 562.935C125.472 578.185 113.322 594.475 100.138 609.475L97.4888 607.805Z" fill="#9D5B32"/>
<path d="M13.9375 716.235C20.6165 722.455 15.6435 724.485 16.9495 732.125C19.9355 728.515 17.2475 727.695 20.3375 724.265C23.1345 726.425 23.8954 726.715 27.2784 727.815C33.6264 726.675 33.7335 720.825 38.4835 719.875C40.0115 719.575 39.5635 720.625 42.7275 719.275C37.4715 725.955 31.3035 737.055 23.9745 739.225C20.7565 738.765 20.9715 738.855 18.3525 736.925L16.1534 738.565C14.1414 735.765 14.4415 728.935 13.4715 724.675C12.4885 721.055 13.0865 719.855 13.9375 716.235Z" fill="#663E25"/>
<path d="M155.022 542.096C157.598 543.016 157.051 542.596 159.177 544.136C152.617 551.006 148.652 556.376 142.661 563.116C140.742 562.006 141.53 562.736 140.285 560.936C145.076 554.496 150.609 549.086 155.022 542.096Z" fill="#462814"/>
<path d="M163.058 547.695L164.735 549.265C163.103 551.765 160.193 556.485 157.344 557.095C157.815 553.685 160.827 550.565 163.058 547.695Z" fill="#663E25"/>
<path d="M159.854 562.806C160.421 567.626 151.914 574.176 148.269 581.036L147.225 580.566C148.898 574.546 155.299 567.036 159.854 562.806Z" fill="#663E25"/>
<path d="M43.3306 705.365L44.9736 706.215C44.4926 709.205 42.4266 710.465 39.9656 713.185L39.0137 712.905C39.1407 710.065 41.3116 708.175 43.3306 705.365Z" fill="#8A522E"/>
<path d="M177.686 559.655L178.918 560.995C179.19 569.445 98.6508 662.135 89.8268 673.915C82.0588 684.285 48.0248 719.925 44.8348 730.285L45.6959 731.255C50.8299 729.625 137.974 619.045 151.917 605.115L153.147 605.255C151.415 608.095 151.464 606.865 151.463 609.565C149.796 610.635 149.917 610.605 148.708 612.075C121.509 645.075 93.7459 677.625 66.8079 710.845C60.8219 718.235 54.6278 726.535 47.8308 733.085C44.8308 734.105 39.7168 732.715 36.3608 732.115C71.5068 686.115 111.99 642.585 147.579 596.745C157.406 584.095 166.712 571.365 177.686 559.655Z" fill="#9D5B32"/>
<path d="M168.665 508.995L166.361 506.329L166.748 504.329C167.951 503.686 168.903 502.831 169.998 503.357C178.522 507.45 201.326 526.765 206.097 533.825L209.56 536.165C212.062 538.715 215.324 542.605 218.457 543.905C221.477 546.205 226.002 549.365 226.704 553.125L225.78 554.035L224.212 555.645L223.7 557.705C222.665 557.575 197.955 540.355 189.459 538.225C190.482 540.505 190.262 539.405 190.356 541.465C187.679 545.825 189.186 544.785 184.937 546.095C178.742 542.245 175.691 537.825 168.209 534.555C164.224 534.475 160.654 531.525 158.545 528.325L159.193 527.155L162.159 527.335C164.823 526.935 165.042 526.545 167.42 525.155C166.574 520.755 161.181 520.865 159.303 515.505C160.342 513.175 159.567 514.065 161.905 512.995L170.099 517.695C169.946 516.875 168.501 514.075 168.052 513.145C164.838 511.311 161.393 510.369 161.372 506.552L163.067 506.204L166.752 509.138L168.665 508.995Z" fill="#663E25"/>
<path d="M168.665 508.995L166.361 506.329L166.748 504.329C167.951 503.686 168.903 502.831 169.998 503.357C178.522 507.45 201.326 526.765 206.097 533.825L203.349 537.785L202.751 538.975L201.198 540.915C199.907 540.085 198.921 539.335 197.692 538.425L199.731 537.695L199.527 536.475C195.19 532.895 195.427 532.535 190.743 535.495C184.838 535.765 171.127 523.795 170.099 517.695C169.946 516.875 168.501 514.075 168.052 513.145C164.838 511.311 161.393 510.369 161.372 506.552L163.067 506.204L166.752 509.138L168.665 508.995Z" fill="#9D5B32"/>
<path d="M168.052 513.145C164.838 511.311 161.393 510.369 161.372 506.552L163.067 506.204L166.752 509.138L168.665 508.995L169.861 510.437C169.489 510.976 168.293 512.631 168.052 513.145Z" fill="#9D5B32"/>
<path d="M206.096 533.825L209.559 536.165C212.061 538.715 215.323 542.605 218.456 543.905C221.476 546.205 226.001 549.365 226.703 553.125L225.779 554.035L224.211 555.645C217.256 549.235 208.447 544.445 202.75 538.975L203.348 537.785L206.096 533.825Z" fill="#9D5B32"/>
<path d="M203.348 537.785C210.049 540.955 221.73 547.875 225.779 554.035L224.211 555.645C217.256 549.235 208.447 544.445 202.75 538.975L203.348 537.785Z" fill="#462814"/>
<path d="M168.209 534.555C164.224 534.475 160.654 531.525 158.545 528.325L159.193 527.155L162.159 527.335C163.746 529.035 167.557 532.705 168.209 534.555Z" fill="#9D5B32"/>
<path d="M334.282 291.446C337.202 286.668 343.052 289.57 346.502 292.256C364.602 306.371 389.002 321.57 401.062 341.207C393.482 335.697 381.582 326.515 373.832 322.041C379.552 329.281 401.812 346.317 402.522 352.258C400.052 351.403 400.972 351.761 398.972 349.549L397.302 349.683L398.242 352.396C394.942 352.696 389.812 349.715 387.882 347.337C380.062 337.69 360.782 326.584 353.672 318.562L354.072 317.596L355.322 317.678L356.612 316.84C353.742 313.851 346.762 308.999 342.932 305.592C338.422 302.086 332.852 298.95 331.732 293.796L334.282 291.446Z" fill="url(#paint3_linear_5508_4927)"/>
<path d="M331.732 293.796L334.282 291.446C337.462 293.264 341.002 294.6 342.682 297.36L342.462 298.105C342.152 301.19 341.692 302.749 342.932 305.592C338.422 302.086 332.852 298.95 331.732 293.796Z" fill="#9D5B32"/>
<path d="M331.732 293.796L334.282 291.446C337.462 293.264 341.002 294.6 342.682 297.36L342.462 298.105C339.062 298.181 334.922 295.469 331.732 293.796Z" fill="#462814"/>
<path d="M356.612 316.84C362.532 320.167 371.282 325.863 376.382 330.257L376.532 332.243C374.062 332.146 358.652 320.068 355.322 317.678L356.612 316.84Z" fill="#462814"/>
<path d="M376.532 332.243C382.052 333.158 390.072 341.555 393.922 345.877C388.122 345.013 379.662 337.178 376.532 332.243Z" fill="#462814"/>
<path d="M332.682 323.015C333.532 324.976 334.242 326.56 335.212 328.463L337.342 329.203L339.262 332.906L341.802 333.244C342.372 335.62 342.282 334.757 342.032 337.178C344.382 337.698 343.722 337.52 346.242 337.235L347.312 338.543C346.152 343.528 343.462 343.047 343.322 347.48C345.762 346.426 345.412 346.497 347.622 344.888L348.672 345.62C348.252 348.662 347.312 349.538 345.552 352.029L345.482 355.909L343.552 354.254L343.312 355.366C345.362 357.476 347.422 358.938 348.182 361.468C345.062 362.479 344.402 361.858 340.872 361.228C341.692 364.221 341.402 363.23 343.372 365.912L342.622 369.858C336.692 365.186 310.542 345.365 309.372 340.116C311.812 337.305 316.712 339.097 325.192 333.067L326.262 332.295C328.482 328.057 329.132 326.01 332.682 323.015Z" fill="#9D5B32"/>
<path d="M332.682 323.015C333.532 324.976 334.242 326.56 335.212 328.463L337.342 329.203L339.262 332.906C336.672 334.571 334.072 336.577 331.142 337.291L329.762 335.44C331.572 331.076 333.522 327.507 332.682 323.015Z" fill="#462814"/>
<path d="M337.342 329.202L339.262 332.905C336.672 334.57 334.072 336.576 331.142 337.29C332.102 334.669 335.342 331.452 337.342 329.202Z" fill="#9D5B32"/>
<path d="M337.092 390.668C326.212 383.477 300.082 363.038 291.747 353.346L292.276 350.716C293.481 349.605 294.002 348.581 295.255 348.989C302.972 351.501 320.852 366.441 326.572 371.926C333.232 377.302 349.962 391.284 353.452 398.644C350.232 397.377 349.312 396.104 346.882 393.69C345.022 394.57 344.812 394.67 342.812 395.343C340.352 393.831 339.182 392.601 337.092 390.668Z" fill="#9D5B32"/>
<path d="M326.572 371.927C333.232 377.303 349.962 391.285 353.452 398.645C350.232 397.378 349.312 396.105 346.882 393.691C345.022 394.571 344.812 394.671 342.812 395.344C340.352 393.832 339.182 392.602 337.092 390.669C336.452 384.297 330.412 383.734 327.082 376.199L326.572 371.927Z" fill="#9D5B32"/>
<path d="M327.082 376.198C330.752 379.104 344.512 390.262 346.882 393.69C345.022 394.57 344.812 394.67 342.812 395.343C340.352 393.831 339.182 392.601 337.092 390.668C336.452 384.296 330.412 383.733 327.082 376.198Z" fill="#462814"/>
<path d="M192.573 569.596L193.678 569.966L193.874 571.596C187.01 580.896 179.096 590.486 171.621 599.306C131.741 646.406 93.5239 696.236 52.8259 742.526L51.9608 742.646L51.4028 741.626C54.7908 735.686 85.1659 699.966 91.0319 692.926C112.561 667.406 133.863 641.686 154.935 615.776C167.381 600.706 180.817 585.106 192.573 569.596Z" fill="#9D5B32"/>
<path d="M209.56 536.166C213.531 536.676 211.833 537.106 214.952 535.566L215.67 533.336C211.171 526.156 178.536 507.666 178.456 500.718C184.768 499.048 223.378 530.886 227.52 536.996C224.812 538.996 222.996 541.446 219.76 542.206L218.457 543.906C215.324 542.606 212.062 538.716 209.56 536.166Z" fill="#8A522E"/>
<path d="M327.722 408.868L328.521 409.935C326.381 414.146 311.532 431.307 307.422 436.337L241.548 515.825C237.294 520.995 235.24 526.385 231.203 529.535C229.209 527.185 229.777 528.475 229.271 525.585C238.52 516.695 250.443 501.369 259.045 491.357C282.285 464.308 304.052 435.552 327.722 408.868Z" fill="#9D5B32"/>
<path d="M342.622 369.857L343.372 365.911C341.402 363.229 341.692 364.22 340.872 361.227C344.402 361.857 345.062 362.478 348.182 361.467C347.422 358.937 345.362 357.475 343.312 355.365L343.552 354.253L345.482 355.908L347.942 356.842C348.892 355.918 349.602 355.248 350.752 354.571C354.862 358.331 351.372 359.53 355.302 362.211C363.342 360.796 367.542 355.84 371.212 358.149L370.622 359.595C368.132 360.553 366.442 361.112 363.882 361.86C363.802 366.145 361.242 374.153 359.442 378.118C358.852 379.271 359.032 380.678 358.982 381.95L357.982 382.176C352.122 378.341 348.242 373.525 342.622 369.857Z" fill="#51331F"/>
<path d="M359.442 378.118C358.842 370.594 357.852 367.18 363.882 361.86C363.802 366.145 361.242 374.153 359.442 378.118Z" fill="#9D5B32"/>
<path d="M373.192 346.782C368.792 345.957 334.712 316.346 328.962 310.051C327.902 308.887 328.342 307.478 328.562 306.034C336.372 313.9 370.722 338.203 373.192 346.782Z" fill="#9D5B32"/>
<path d="M292.684 360.756C297.962 363.203 334.592 396.183 339.352 401.231C328.752 397.715 304.612 373.483 294.843 365.637C293.664 364.689 293.028 362.195 292.684 360.756Z" fill="#9D5B32"/>
<path d="M168.208 534.556C175.69 537.826 178.741 542.246 184.936 546.096C188.047 549.486 194.946 553.606 196.445 557.136L193.815 557.716C187.52 555.896 169.312 541.136 168.208 534.556Z" fill="#9D5B32"/>
<path d="M185.035 563.985L185.578 564.715C185.256 567.755 165.808 590.175 162.414 594.295C161.469 593.385 161.845 594.005 161.708 592.255C169.023 582.455 176.807 573.025 185.035 563.985Z" fill="#8A522E"/>
<path d="M11.4985 715.155L13.9375 716.235C13.0865 719.855 12.4885 721.055 13.4715 724.675C13.4975 728.635 13.4755 729.755 12.8255 733.635L12.0635 733.455C10.4915 726.895 9.77545 721.695 11.4985 715.155Z" fill="#9D5B32"/>
<path d="M373.192 346.782C377.762 347.911 382.332 353.539 385.632 357.196C380.512 355.518 375.232 351.936 373.192 346.782Z" fill="#663E25"/>
<path d="M315.342 353.629C319.432 355.638 323.672 358.803 325.372 363.156L323.732 363.269C319.112 361.002 317.452 358.177 315.342 353.629Z" fill="#9D5B32"/>
<path d="M325.872 362.791C330.682 364.782 333.142 367.862 335.682 372.316C330.342 371.436 327.792 367.428 325.872 362.791Z" fill="#9D5B32"/>
<path d="M197.492 558.976C202.469 560.076 204.224 559.946 205.96 564.976C201.942 563.946 198.437 563.216 197.492 558.976Z" fill="#9D5B32"/>
<path d="M343.722 378.89C347.972 380.585 349.792 383.412 351.882 387.241C347.432 385.493 345.602 383.005 343.722 378.89Z" fill="#9D5B32"/>
<path d="M336.132 372.483C340.642 373.73 341.722 375.684 344.062 379.342C339.222 378.26 339.022 376.871 336.132 372.483Z" fill="#9D5B32"/>
<defs>
<linearGradient id="paint0_linear_5508_4927" x1="577.112" y1="242.155" x2="566.758" y2="337.098" gradientUnits="userSpaceOnUse">
<stop stop-color="#4C2811"/>
<stop offset="1" stop-color="#423226"/>
</linearGradient>
<linearGradient id="paint1_linear_5508_4927" x1="641.301" y1="256.123" x2="576.602" y2="260.037" gradientUnits="userSpaceOnUse">
<stop stop-color="#AF5F2E"/>
<stop offset="1" stop-color="#825235"/>
</linearGradient>
<linearGradient id="paint2_linear_5508_4927" x1="393.497" y1="165.678" x2="371.353" y2="194.338" gradientUnits="userSpaceOnUse">
<stop stop-color="#512F19"/>
<stop offset="1" stop-color="#3D2D22"/>
</linearGradient>
<linearGradient id="paint3_linear_5508_4927" x1="363.148" y1="327.125" x2="373.783" y2="314.698" gradientUnits="userSpaceOnUse">
<stop stop-color="#6A452E"/>
<stop offset="1" stop-color="#B06437"/>
</linearGradient>
</defs>
</svg>
